<?xml version="1.0" standalone="no"?>
<!DOCTYPE svg PUBLIC "-//W3C//DTD SVG 1.1//EN" "http://www.w3.org/Graphics/SVG/1.1/DTD/svg11.dtd" >
<svg xmlns="http://www.w3.org/2000/svg" xmlns:xlink="http://www.w3.org/1999/xlink" version="1.1">
<metadata>
Created by FontForge 20150102 at Wed Jan 14 05:05:11 2015
 By uniteet7
Copyright (c) 2008-2011 by Accademia di Belle Arti di Urbino and others. All rights reserved.
</metadata>
<defs>
<font id="TitilliumRegular" horiz-adv-x="560" >
  <font-face 
    font-family="TitilliumRegular"
    font-weight="400"
    font-stretch="normal"
    units-per-em="1000"
    panose-1="0 0 5 0 0 0 0 0 0 0"
    ascent="750"
    descent="-250"
    x-height="500"
    cap-height="692"
    bbox="-224 -285 1067 1082"
    underline-thickness="30"
    underline-position="-80"
    unicode-range="U+0020-F6C3"
  />
<missing-glyph horiz-adv-x="235" 
 />
    <glyph glyph-name=".notdef" horiz-adv-x="235" 
 />
    <glyph glyph-name=".null" horiz-adv-x="0" 
 />
    <glyph glyph-name="nonmarkingreturn" horiz-adv-x="333" 
 />
    <glyph glyph-name="space" unicode=" " horiz-adv-x="220" 
 />
    <glyph glyph-name="exclam" unicode="!" horiz-adv-x="247" 
d="M83 0v112h82v-112h-82zM89 228l-5 464h79l-5 -464h-69z" />
    <glyph glyph-name="quotedbl" unicode="&#x22;" horiz-adv-x="373" 
d="M303 470h-67l-4 222h75zM137 470h-67l-4 222h75z" />
    <glyph glyph-name="numbersign" unicode="#" 
d="M536 174h-111v-174h-68v174h-154v-174h-68v174h-111v64h111v186h-111v64h111v178h68v-178h154v178h68v-178h111v-64h-111v-186h111v-64zM357 238v186h-154v-186h154z" />
    <glyph glyph-name="dollar" unicode="$" 
d="M480 651l-6 -62q-69 8 -127 13l-30 -233q97 -23 137 -59t40 -116q0 -203 -211 -203h-15l-14 -115q-51 3 -51 7l14 111l-143 18l8 61q77 -11 143 -15l33 250q-102 24 -145.5 61.5t-43.5 123.5q0 177 212 177q15 0 23 -1l17 129h51l-17 -132zM143 497q0 -54 27 -77t97 -40
l29 225h-10q-143 0 -143 -108zM420 189q0 48 -25 71t-87 38l-31 -242h2q141 0 141 133z" />
    <glyph glyph-name="percent" unicode="%" 
d="M155 -4l205 685l48 -16l-205 -683zM138 670q110 0 110 -138q0 -71 -29 -106t-81 -35t-81 35t-29 106q0 138 110 138zM89 532q0 -90 49 -90q50 0 50 90q0 45 -11.5 66t-38.5 21q-26 0 -37.5 -21t-11.5 -66zM422 269q110 0 110 -138q0 -70 -29 -105.5t-81 -35.5t-80.5 35.5
t-28.5 106.5q0 137 109 137zM373 132q0 -91 49 -91q28 0 39 22t11 68t-11 66.5t-39 20.5q-26 0 -37.5 -20.5t-11.5 -65.5z" />
    <glyph glyph-name="ampersand" unicode="&#x26;" horiz-adv-x="688" 
d="M314 701q86 0 129.5 -40t43.5 -112q0 -69 -35 -109.5t-119 -79.5l152 -150q22 64 28 162l73 -1q-13 -125 -46 -208l129 -122l-45 -50l-121 113q-69 -114 -215 -114q-134 0 -190 54t-56 159q0 86 36.5 130.5t118.5 71.5q-35 40 -46 71t-11 78q0 67 46 107t128 40zM282 58
q123 0 169 90l-211 210q-66 -21 -94 -54t-28 -96q0 -75 39 -112.5t125 -37.5zM215 542q0 -61 45 -109l29 -28q69 30 96 59t27 80q0 92 -98 92q-99 0 -99 -94z" />
    <glyph glyph-name="quotesingle" unicode="'" horiz-adv-x="208" 
d="M70 470l-3 222h75l-5 -222h-67z" />
    <glyph glyph-name="parenleft" unicode="(" horiz-adv-x="264" 
d="M155 750h72q-11 -29 -26.5 -76.5t-42 -167t-26.5 -205.5q0 -85 24 -191.5t48 -170.5l23 -64h-72q-4 9 -11 24t-25 63t-32 96t-25 115.5t-11 127.5q0 96 26 208.5t52 176.5z" />
    <glyph glyph-name="parenright" unicode=")" horiz-adv-x="264" 
d="M37 750h72q4 -9 11 -26t25 -69t32 -103t25 -121t11 -130q0 -96 -26 -202.5t-52 -164.5l-26 -59h-72q11 26 26.5 70.5t42 157.5t26.5 198q0 86 -23.5 198t-47.5 181z" />
    <glyph glyph-name="asterisk" unicode="*" horiz-adv-x="420" 
d="M373 511h-132l41 -125l-49 -15l-41 126l-107 -79l-31 40l108 79l-106 77l31 42l106 -78l41 126l49 -16l-40 -127h130v-50z" />
    <glyph glyph-name="plus" unicode="+" 
d="M55 217v68h189v195h70v-195h191v-68h-191v-197h-70v197h-189z" />
    <glyph glyph-name="comma" unicode="," horiz-adv-x="223" 
d="M34 -123l46 230h83l-67 -230h-62z" />
    <glyph glyph-name="hyphen" unicode="-" horiz-adv-x="438" 
d="M68 240v70h303v-70h-303z" />
    <glyph glyph-name="period" unicode="." horiz-adv-x="216" 
d="M67 0v114h82v-114h-82z" />
    <glyph glyph-name="slash" unicode="/" horiz-adv-x="412" 
d="M32 10l282 698l67 -25l-282 -697z" />
    <glyph glyph-name="zero" unicode="0" 
d="M279 671q82 0 133 -30.5t79.5 -109t28.5 -211.5q0 -181 -60 -255.5t-180 -74.5t-180.5 73.5t-60.5 255.5q0 195 59.5 273.5t180.5 78.5zM280 602q-57 0 -90.5 -23.5t-52 -86t-18.5 -173.5q0 -148 39 -204.5t122 -56.5t122 57t39 205q0 161 -37.5 221.5t-123.5 60.5z" />
    <glyph glyph-name="one" unicode="1" 
d="M107 520l210 140h72v-660h-77v574l-170 -112z" />
    <glyph glyph-name="two" unicode="2" 
d="M491 0h-422v65l193 203q50 52 73 79t41.5 64t18.5 74q0 64 -35 90t-109 26q-32 0 -75 -5.5t-70 -11.5l-26 -5l-6 64q95 27 191 27q106 0 157.5 -42.5t51.5 -134.5q0 -70 -31 -122t-107 -125l-176 -179h331v-67z" />
    <glyph glyph-name="three" unicode="3" 
d="M79 582l-7 61q94 28 194 28q115 0 163 -41t48 -131q0 -21 -4 -40t-12.5 -33t-16 -25t-19.5 -20.5t-18 -14t-17 -10.5l-11 -7q58 -21 86 -53.5t28 -106.5q0 -101 -51.5 -150t-162.5 -49q-46 0 -100.5 7t-85.5 13l-31 7l7 63q108 -22 202 -22q143 1 143 128q0 119 -136 124
h-133v66h133q42 0 81 33.5t39 86.5q0 57 -31 81.5t-104 24.5q-40 0 -86 -5t-72 -10z" />
    <glyph glyph-name="four" unicode="4" 
d="M360 0v129h-320v60l188 471h84l-191 -463h239v206h77v-206h84v-68h-84v-129h-77z" />
    <glyph glyph-name="five" unicode="5" 
d="M92 660h385v-70h-321l-18 -215q77 41 155 41q210 0 210 -195q0 -112 -58 -171t-163 -59q-45 0 -99.5 7.5t-86.5 14.5l-33 7l9 61q115 -22 203 -22q69 0 109 40.5t40 115.5q0 71 -36.5 101.5t-103.5 30.5q-36 0 -75.5 -10t-60.5 -20l-21 -10l-53 10z" />
    <glyph glyph-name="six" unicode="6" 
d="M489 653l-7 -63q-90 12 -174 12q-86 0 -132 -59t-46 -169l25 10q25 9 66.5 19t73.5 10q222 0 222 -205q0 -105 -60.5 -161.5t-170.5 -56.5q-236 0 -236 343q0 173 67.5 255t190.5 82q37 0 82.5 -4t71.5 -8zM290 344q-34 0 -74.5 -9.5t-63.5 -18.5l-23 -10
q1 -114 38.5 -181t118.5 -67q73 0 112 38.5t39 111.5q0 68 -38.5 102t-108.5 34z" />
    <glyph glyph-name="seven" unicode="7" 
d="M77 590v70h410v-101l-254 -569l-73 23l249 551v26h-332z" />
    <glyph glyph-name="eight" unicode="8" 
d="M278 671q110 0 174.5 -43.5t64.5 -128.5q0 -62 -25 -94.5t-85 -59.5q60 -27 90 -63.5t30 -102.5q0 -189 -249 -189q-246 0 -246 178q0 71 27.5 108t86.5 69q-54 27 -78.5 61.5t-24.5 93.5q0 84 62.5 127.5t172.5 43.5zM278 60q167 0 167 127q0 53 -29.5 78.5t-87.5 42.5
h-105q-55 -15 -82 -44.5t-27 -82.5q0 -121 164 -121zM279 601q-154 0 -154 -110q0 -44 24 -71t74 -45h105q54 17 80.5 44t26.5 71q0 111 -156 111z" />
    <glyph glyph-name="nine" unicode="9" 
d="M66 8l7 62q90 -12 174 -12q181 0 182 230q-100 -38 -172 -38q-216 0 -216 201q0 101 62 160t167 59q121 0 180 -89.5t59 -252.5q0 -184 -66.5 -261t-195.5 -77q-37 0 -82.5 4.5t-72.5 9.5zM263 318q31 0 72.5 9t68.5 18l26 9q-3 248 -160 248q-70 0 -109.5 -40.5
t-39.5 -110.5q0 -133 142 -133z" />
    <glyph glyph-name="colon" unicode=":" horiz-adv-x="217" 
d="M67 322v114h82v-114h-82zM67 0v114h82v-114h-82z" />
    <glyph glyph-name="semicolon" unicode=";" horiz-adv-x="248" 
d="M93 107l-45 -230h62l67 230h-84zM88 322v114h81v-114h-81z" />
    <glyph glyph-name="less" unicode="&#x3c;" 
d="M477 409l-339 -157l339 -160v-79l-416 205v66l416 203v-78z" />
    <glyph glyph-name="equal" unicode="=" 
d="M64 309v69h432v-69h-432zM64 124v69h432v-69h-432z" />
    <glyph glyph-name="greater" unicode="&#x3e;" 
d="M421 252l-339 157v78l416 -203v-66l-416 -205v79z" />
    <glyph glyph-name="question" unicode="?" horiz-adv-x="447" 
d="M406 542q0 -65 -17.5 -98.5t-75.5 -82.5q-49 -40 -69 -66.5t-20 -58.5v-35h-63q-13 27 -13 61t23 63.5t70 69.5q55 48 72 74t17 67q0 52 -32 75t-101 23q-25 0 -63.5 -6t-65.5 -12l-26 -5l-5 61q101 30 167 30q103 0 152.5 -37.5t49.5 -122.5zM150 1v112h82v-112h-82z
" />
    <glyph glyph-name="at" unicode="@" horiz-adv-x="977" 
d="M933 305v-13q0 -76 -8.5 -130t-22 -86t-37 -51t-48 -25t-59.5 -6q-28 0 -50.5 6t-34.5 15t-20 18t-11 15l-2 6q-98 -59 -174 -59q-37 0 -64.5 9t-55 33.5t-42 77.5t-14.5 131q0 132 45.5 195.5t157.5 63.5q22 0 50.5 -6.5t46.5 -12.5l18 -7v16h75v-191q0 -62 0.5 -96.5
t3.5 -66.5t7.5 -45t14 -24t20.5 -13t31 -2q34 0 52.5 13t31.5 66t13 156v14q0 185 -82 268t-271 83q-192 0 -284.5 -94.5t-92.5 -301.5q0 -218 88 -308t289 -90l143 10l3 -67q-94 -9 -146 -9q-116 0 -196.5 22t-140 74.5t-88 143t-28.5 224.5q0 241 115 351.5t338 110.5
t326 -102.5t103 -315.5zM471 61q43 0 146 46q-9 54 -9 173v139q-60 20 -103 20q-81 0 -110 -46t-29 -149q0 -183 105 -183z" />
    <glyph glyph-name="A" unicode="A" horiz-adv-x="596" 
d="M24 0l190 692h168l190 -692h-76l-50 178h-296l-50 -178h-76zM272 626l-105 -379h262l-105 379h-52z" />
    <glyph glyph-name="B" unicode="B" horiz-adv-x="616" 
d="M85 692h251q103 0 154.5 -42.5t51.5 -133.5q0 -65 -22.5 -101.5t-66.5 -57.5q110 -38 110 -163q0 -104 -55 -149t-159 -45h-264v692zM341 318h-179v-250h184q68 0 103.5 28.5t35.5 100.5q0 38 -14.5 64t-38.5 37t-45.5 15.5t-45.5 4.5zM333 624h-171v-239h178
q64 0 93.5 30.5t29.5 93.5q0 60 -31.5 87.5t-98.5 27.5z" />
    <glyph glyph-name="C" unicode="C" horiz-adv-x="544" 
d="M500 77l3 -66q-103 -21 -191 -21q-76 0 -126.5 22.5t-78 70t-38 109t-10.5 152.5q0 93 10.5 155.5t38 110.5t77.5 70t127 22q83 0 191 -22l-3 -65q-101 18 -180 18q-110 0 -145.5 -65.5t-35.5 -223.5q0 -79 6.5 -127t25.5 -86.5t55.5 -55t95.5 -16.5q82 0 178 18z" />
    <glyph glyph-name="D" unicode="D" horiz-adv-x="645" 
d="M332 0h-247v692h247q59 0 103.5 -16.5t73.5 -45t47 -72t25 -92t7 -110.5q0 -79 -11.5 -140t-39.5 -111.5t-79.5 -77.5t-125.5 -27zM509 356q0 61 -7.5 106t-26.5 83.5t-55 58.5t-88 20h-170v-556h170q177 0 177 288z" />
    <glyph glyph-name="E" unicode="E" horiz-adv-x="553" 
d="M85 0v692h421v-68h-344v-239h284v-67h-284v-250h344v-68h-421z" />
    <glyph glyph-name="F" unicode="F" horiz-adv-x="526" 
d="M85 0v692h414v-68h-337v-270h285v-68h-285v-286h-77z" />
    <glyph glyph-name="G" unicode="G" horiz-adv-x="616" 
d="M359 285v69h191v-340q-126 -24 -225 -24q-151 0 -209.5 87t-58.5 267q0 183 58.5 270.5t207.5 87.5q47 0 103.5 -6.5t89.5 -13.5l34 -6l-3 -64q-124 21 -215 21q-115 0 -155 -66.5t-40 -222.5q0 -153 40 -219.5t154 -66.5q70 0 143 14v213h-115z" />
    <glyph glyph-name="H" unicode="H" horiz-adv-x="675" 
d="M514 0v313h-352v-313h-77v692h77v-310h352v310h76v-692h-76z" />
    <glyph glyph-name="I" unicode="I" horiz-adv-x="246" 
d="M85 0v692h77v-692h-77z" />
    <glyph glyph-name="J" unicode="J" horiz-adv-x="289" 
d="M207 692l1 -597q0 -45 -7.5 -75t-20.5 -48.5t-38.5 -28t-52.5 -12.5t-71 -3v69q72 0 92.5 17.5t20.5 91.5v586h76z" />
    <glyph glyph-name="K" unicode="K" horiz-adv-x="569" 
d="M461 0l-184 306l-115 -4v-302h-77v692h77v-322l114 4l177 318h88l-198 -348l209 -344h-91z" />
    <glyph glyph-name="L" unicode="L" horiz-adv-x="479" 
d="M466 0h-381v692h77v-623h304v-69z" />
    <glyph glyph-name="M" unicode="M" horiz-adv-x="840" 
d="M85 0v692h139l196 -585l196 585h139v-692h-77v610h-14l-201 -585h-86l-201 585h-14v-610h-77z" />
    <glyph glyph-name="N" unicode="N" horiz-adv-x="676" 
d="M85 0v692h144l265 -624h21v624h76v-692h-141l-269 624h-19v-624h-77z" />
    <glyph glyph-name="O" unicode="O" horiz-adv-x="660" 
d="M330 58q115 0 154.5 65t39.5 220q0 151 -41 221t-153 70q-113 0 -153.5 -69.5t-40.5 -221.5t40 -218.5t154 -66.5zM330 -10q-155 0 -214 85t-59 268q0 182 60 270.5t213 88.5t213.5 -88t60.5 -271q0 -187 -59 -270t-215 -83z" />
    <glyph glyph-name="P" unicode="P" horiz-adv-x="593" 
d="M338 233h-176v-233h-77v692h253q113 0 167 -55t54 -168q0 -236 -221 -236zM162 301h175q143 0 143 168q0 80 -34 117.5t-109 37.5h-175v-323z" />
    <glyph glyph-name="Q" unicode="Q" horiz-adv-x="660" 
d="M502 -145l-88 144q-33 -9 -84 -9q-155 0 -214 85t-59 268q0 182 60 270.5t213 88.5t213.5 -88t60.5 -271q0 -127 -26 -203.5t-89 -113.5l85 -137zM330 58q115 0 154.5 64.5t39.5 220.5q0 151 -41 221t-153 70q-113 0 -153.5 -69.5t-40.5 -221.5t40 -218.5t154 -66.5z" />
    <glyph glyph-name="R" unicode="R" horiz-adv-x="616" 
d="M358 265h-196v-265h-77v692h256q110 0 165.5 -51t55.5 -159q0 -160 -127 -201l133 -281h-85zM483 482q0 142 -142 142h-179v-291h180q141 0 141 149z" />
    <glyph glyph-name="S" unicode="S" horiz-adv-x="542" 
d="M480 683l-7 -65q-139 17 -197 17q-150 0 -150 -113q0 -63 34.5 -86.5t134.5 -45.5q111 -25 155 -62.5t44 -123.5q0 -213 -221 -213q-36 0 -91 5.5t-92 11.5l-36 5l8 64q136 -18 207 -18q148 0 148 139q0 56 -32.5 80.5t-121.5 41.5q-117 25 -166 64.5t-49 132.5
q0 186 223 186q36 0 88.5 -5t86.5 -10z" />
    <glyph glyph-name="T" unicode="T" horiz-adv-x="526" 
d="M13 623v69h500v-69h-211v-623h-76v623h-213z" />
    <glyph glyph-name="U" unicode="U" horiz-adv-x="644" 
d="M157 208q0 -150 162 -150q84 0 126.5 35.5t42.5 114.5v484h76v-482q0 -116 -61.5 -168t-183.5 -52q-118 0 -178.5 52t-60.5 168v482h77v-484z" />
    <glyph glyph-name="V" unicode="V" horiz-adv-x="582" 
d="M478 692h80l-181 -692h-172l-181 692h80l159 -624h56z" />
    <glyph glyph-name="W" unicode="W" horiz-adv-x="886" 
d="M30 692h80l118 -624h29l141 618h90l141 -618h29l118 624h79l-140 -692h-141l-131 591l-131 -591h-141z" />
    <glyph glyph-name="X" unicode="X" horiz-adv-x="558" 
d="M106 692l175 -296l176 296h83l-213 -351l213 -341h-87l-174 287l-177 -287h-83l214 339l-214 353h87z" />
    <glyph glyph-name="Y" unicode="Y" horiz-adv-x="538" 
d="M308 291v-291h-77v291l-221 401h87l172 -324l172 324h87z" />
    <glyph glyph-name="Z" unicode="Z" horiz-adv-x="536" 
d="M43 624v68h450v-90l-362 -514v-20h362v-69h-450v89l361 514v22h-361z" />
    <glyph glyph-name="bracketleft" unicode="[" horiz-adv-x="329" 
d="M289 749v-67h-134v-738h134v-67h-210v872h210z" />
    <glyph glyph-name="backslash" unicode="\" horiz-adv-x="436" 
d="M405 14l-67 -28l-308 692l67 29z" />
    <glyph glyph-name="bracketright" unicode="]" horiz-adv-x="329" 
d="M40 682v67h210v-872h-210v67h134v738h-134z" />
    <glyph glyph-name="asciicircum" unicode="^" 
d="M421 319l-143 267l-140 -267h-80l185 341h67l191 -341h-80z" />
    <glyph glyph-name="underscore" unicode="_" horiz-adv-x="632" 
d="M102 -92h428v-66h-428v66z" />
    <glyph glyph-name="grave" unicode="`" horiz-adv-x="236" 
d="M25 740l216 -98l-21 -51l-221 85z" />
    <glyph glyph-name="a" unicode="a" horiz-adv-x="501" 
d="M425 349v-256q3 -37 58 -44l-3 -59q-79 0 -119 40q-90 -40 -180 -40q-69 0 -105 39t-36 114q0 71 37 105.5t116 42.5l157 15v43q0 51 -22 73t-68 22q-31 0 -78.5 -3t-79.5 -7l-31 -3l-3 57q110 22 196 22q84 0 122.5 -39t38.5 -122zM350 249l-148 -14q-45 -4 -65 -26
t-20 -64q0 -92 76 -92q33 0 72 7.5t62 15.5l23 8v165z" />
    <glyph glyph-name="b" unicode="b" horiz-adv-x="526" 
d="M293 510q101 0 141.5 -57.5t40.5 -194.5q0 -151 -50.5 -209.5t-185.5 -58.5q-27 0 -68.5 3t-70.5 5l-28 3v717h74v-243q76 35 147 35zM238 57q98 0 129.5 44.5t31.5 156.5q0 100 -25 142.5t-89 42.5q-31 0 -65.5 -7.5t-53.5 -14.5l-20 -7v-352q65 -5 92 -5z" />
    <glyph glyph-name="c" unicode="c" horiz-adv-x="436" 
d="M259 510q20 0 54 -4t58 -8l24 -3l-3 -61q-80 9 -118 9q-85 0 -115.5 -40.5t-30.5 -143.5q0 -116 28.5 -159t118.5 -43l118 9l3 -62q-93 -14 -139 -14q-117 0 -161.5 60t-44.5 209q0 136 48 193.5t160 57.5z" />
    <glyph glyph-name="d" unicode="d" horiz-adv-x="529" 
d="M456 718v-718h-74v34q-77 -44 -152 -44q-40 0 -70 10t-56.5 36.5t-40 79t-13.5 130.5q0 135 48.5 199.5t160.5 64.5q58 0 123 -13v221h74zM239 57q32 0 67.5 9.5t55.5 18.5l20 9v339q-64 12 -119 12q-76 0 -106 -48.5t-30 -150.5q0 -58 9 -97.5t25.5 -58.5t34.5 -26
t43 -7z" />
    <glyph glyph-name="e" unicode="e" horiz-adv-x="505" 
d="M257 56q33 0 79 2t76 4l29 3l2 -59q-114 -16 -195 -16q-108 0 -153 62.5t-45 194.5q0 263 209 263q101 0 151 -56.5t50 -177.5l-4 -57h-330q0 -83 30 -123t101 -40zM125 279h260q0 92 -29.5 130t-96.5 38q-66 0 -99.5 -40t-34.5 -128z" />
    <glyph glyph-name="f" unicode="f" horiz-adv-x="331" 
d="M168 435v-435h-75v435h-63v65h63v45q0 106 30 144.5t105 38.5l101 -7l-1 -62q-56 2 -86 2q-43 0 -58.5 -24t-15.5 -93v-44h145v-65h-145z" />
    <glyph glyph-name="g" unicode="g" horiz-adv-x="514" 
d="M265 -235q-120 0 -167.5 32.5t-47.5 118.5q0 41 18 66.5t61 57.5q-28 19 -28 69q0 8 8.5 28t16.5 35l9 16q-79 36 -79 151q0 171 187 171q22 0 48 -3t41 -7l15 -3l148 4v-64l-95 2q33 -33 33 -100q0 -94 -46.5 -131.5t-146.5 -37.5q-27 0 -49 4q-18 -44 -18 -57
q0 -31 19 -38.5t102 -7.5q109 0 151 -30t42 -117q0 -159 -222 -159zM288 5l-108 5q-33 -24 -44.5 -42t-11.5 -46q0 -53 29.5 -73.5t112.5 -20.5q76 0 110.5 22t34.5 71q0 54 -25 69t-98 15zM243 230q63 0 89 25t26 84q0 60 -26 85t-89 25q-59 0 -85.5 -25.5t-26.5 -84.5
t26.5 -84t85.5 -25z" />
    <glyph glyph-name="h" unicode="h" horiz-adv-x="537" 
d="M147 0h-75v718h75v-246q80 38 154 38q100 0 134.5 -54t34.5 -192v-264h-75v262q0 104 -20.5 142.5t-86.5 38.5q-32 0 -67 -7.5t-55 -15.5l-19 -7v-413z" />
    <glyph glyph-name="i" unicode="i" horiz-adv-x="219" 
d="M72 0v500h75v-500h-75zM72 613v87h75v-87h-75z" />
    <glyph glyph-name="j" unicode="j" horiz-adv-x="219" 
d="M73 13v487h74v-488q0 -92 -33 -138t-133 -97l-30 58q78 45 100 76.5t22 101.5zM73 613v87h74v-87h-74z" />
    <glyph glyph-name="k" unicode="k" horiz-adv-x="479" 
d="M147 0h-75v718h75v-424l78 4l143 202h85l-163 -230l170 -270h-85l-149 232l-79 -3v-229z" />
    <glyph glyph-name="l" unicode="l" horiz-adv-x="231" 
d="M78 0v718h75v-718h-75z" />
    <glyph glyph-name="m" unicode="m" horiz-adv-x="836" 
d="M147 0h-75v500h74v-35q75 45 146 45q93 0 130 -51q10 6 27 14.5t64 22.5t87 14q100 0 134.5 -53.5t34.5 -192.5v-264h-75v262q0 104 -20 142.5t-85 38.5q-33 0 -68 -9.5t-54 -18.5l-19 -9q13 -33 13 -146v-260h-75v258q0 108 -19.5 146.5t-85.5 38.5q-32 0 -65.5 -9.5
t-51.5 -18.5l-17 -9v-406z" />
    <glyph glyph-name="n" unicode="n" horiz-adv-x="537" 
d="M147 0h-75v500h74v-35q81 45 155 45q100 0 134.5 -54t34.5 -192v-264h-74v262q0 104 -20.5 142.5t-87.5 38.5q-32 0 -67.5 -9.5t-54.5 -18.5l-19 -9v-406z" />
    <glyph glyph-name="o" unicode="o" horiz-adv-x="528" 
d="M264 510q117 0 165.5 -61t48.5 -193q0 -142 -46 -204t-168 -62t-168 62t-46 204q0 132 49 193t165 61zM264 55q85 0 111 43.5t26 157.5q0 106 -29 147.5t-108 41.5q-78 0 -107.5 -41.5t-29.5 -147.5q0 -113 26.5 -157t110.5 -44z" />
    <glyph glyph-name="p" unicode="p" horiz-adv-x="527" 
d="M72 -222v722h74v-36q76 46 150 46q95 0 138 -60.5t43 -193.5q0 -145 -50.5 -205.5t-167.5 -60.5q-61 0 -112 11v-223h-75zM285 443q-30 0 -64.5 -10t-54.5 -20l-19 -10v-337q71 -11 108 -11q81 0 113.5 46t32.5 155q0 99 -29.5 143t-86.5 44z" />
    <glyph glyph-name="q" unicode="q" horiz-adv-x="526" 
d="M238 -10q-101 0 -144.5 59t-43.5 193q0 148 52 208t184 60l167 -10v-722h-74v245q-70 -33 -141 -33zM287 445q-94 0 -127.5 -47t-33.5 -156q0 -96 27.5 -140.5t92.5 -44.5q31 0 64 7.5t51 14.5l18 7v353q-62 6 -92 6z" />
    <glyph glyph-name="r" unicode="r" horiz-adv-x="346" 
d="M72 0v500h74v-68q87 60 183 79v-76q-42 -8 -87.5 -25t-69.5 -30l-25 -13v-367h-75z" />
    <glyph glyph-name="s" unicode="s" horiz-adv-x="465" 
d="M406 491l-2 -64q-111 16 -175 16q-109 0 -109 -76q0 -35 25 -49.5t105 -28.5q98 -17 135 -45t37 -98q0 -84 -49.5 -120t-144.5 -36q-28 0 -72 4.5t-74 9.5l-30 5l4 65q114 -17 165 -17q65 0 95.5 18.5t30.5 67.5q0 38 -26 53.5t-109 28.5q-93 15 -130 42t-37 97
q0 76 51.5 111t128.5 35q33 0 78.5 -5t74.5 -9z" />
    <glyph glyph-name="t" unicode="t" horiz-adv-x="351" 
d="M331 435h-159v-239q0 -86 12.5 -113t59.5 -27l89 6l5 -62q-67 -11 -102 -11q-78 0 -108 38t-30 145v263h-71v65h71v153h74v-153h159v-65z" />
    <glyph glyph-name="u" unicode="u" horiz-adv-x="531" 
d="M384 500h75v-500h-75v35q-75 -45 -148 -45q-102 0 -135.5 53t-33.5 196v261h75v-260q0 -109 19 -146t86 -37q33 0 67 9.5t52 18.5l18 9v406z" />
    <glyph glyph-name="v" unicode="v" horiz-adv-x="481" 
d="M25 500h80l117 -435h37l121 435h77l-141 -500h-150z" />
    <glyph glyph-name="w" unicode="w" horiz-adv-x="762" 
d="M31 500h75l101 -435h16l119 425h78l119 -425h17l100 435h75l-119 -500h-125l-106 391l-106 -391h-125z" />
    <glyph glyph-name="x" unicode="x" horiz-adv-x="452" 
d="M22 500h82l122 -196l122 196h82l-159 -248l158 -252h-82l-121 195l-122 -195h-82l157 250z" />
    <glyph glyph-name="y" unicode="y" horiz-adv-x="483" 
d="M25 500h75l125 -435h33l126 435h75l-208 -722h-75l65 222h-74z" />
    <glyph glyph-name="z" unicode="z" horiz-adv-x="455" 
d="M42 433v67h371v-67l-280 -366h280v-67h-371v67l280 366h-280z" />
    <glyph glyph-name="braceleft" unicode="{" horiz-adv-x="352" 
d="M204 170q0 -15 -3.5 -55.5t-3.5 -60.5q0 -56 24.5 -84.5t90.5 -32.5l-2 -65q-101 4 -143.5 44.5t-42.5 130.5q0 21 3.5 66t3.5 56q0 43 -25 69.5t-82 42.5v61q57 13 82 39.5t25 69.5q0 13 -3.5 60.5t-3.5 67.5q0 92 42.5 132t144.5 44l1 -65q-66 -4 -90.5 -31.5
t-24.5 -83.5q0 -17 3.5 -63t3.5 -60q0 -64 -21.5 -93t-83.5 -47q61 -18 83 -48.5t22 -93.5z" />
    <glyph glyph-name="bar" unicode="|" horiz-adv-x="230" 
d="M78 -222v940h74v-940h-74z" />
    <glyph glyph-name="braceright" unicode="}" horiz-adv-x="352" 
d="M148 170q0 63 22 93.5t83 48.5q-62 18 -83.5 47t-21.5 93q0 14 3.5 60t3.5 63q0 56 -24.5 83.5t-90.5 31.5l1 65q102 -4 144.5 -44t42.5 -132q0 -20 -3.5 -67.5t-3.5 -60.5q0 -43 25 -69.5t82 -39.5v-61q-57 -16 -82 -42.5t-25 -69.5q0 -11 3.5 -56t3.5 -66
q0 -90 -42.5 -130.5t-143.5 -44.5l-2 65q66 4 90.5 32.5t24.5 84.5q0 20 -3.5 60.5t-3.5 55.5z" />
    <glyph glyph-name="asciitilde" unicode="~" 
d="M485 310l10 -61q-7 -6 -18 -15t-41 -24t-54 -15q-30 0 -105.5 31t-94.5 31q-18 0 -44 -11.5t-43 -23.5l-17 -12l-11 62q62 53 116 53q29 0 103.5 -30.5t96.5 -30.5q16 0 41.5 11.5t43.5 22.5z" />
    <glyph glyph-name="exclamdown" unicode="&#xa1;" horiz-adv-x="228" 
d="M154 500v-112h-82v112h82zM148 272l5 -464h-79l5 464h69z" />
    <glyph glyph-name="cent" unicode="&#xa2;" 
d="M278 -81v117q-93 5 -135 52t-42 160q0 109 43.5 160.5t133.5 56.5v118h65v-121q19 0 44.5 -3t40.5 -6l16 -3l-3 -60q-79 7 -129 7q-74 0 -103.5 -33.5t-29.5 -115.5t29.5 -113.5t109.5 -31.5l124 7l3 -61q-60 -9 -102 -11v-119h-65z" />
    <glyph glyph-name="sterling" unicode="&#xa3;" 
d="M446 653l-1 -61q-80 11 -125 11q-48 0 -65 -28t-17 -108v-50h171v-65h-171v-286h154l77 16l13 -64l-82 -18h-320v66h85v286h-67v65h67v55q0 117 33.5 157.5t114.5 40.5q24 0 57 -4t54 -8z" />
    <glyph glyph-name="currency" unicode="&#xa4;" 
d="M449 30l-70 71q-46 -30 -99 -30q-55 0 -99 30l-70 -71l-53 53l70 70q-29 45 -29 99q0 52 29 99l-70 70l53 53l70 -71q44 30 99 30q53 0 99 -30l70 71l53 -53l-71 -70q30 -46 30 -99q0 -55 -30 -99l71 -70zM280 137q47 0 81 34t34 81t-34 81t-81 34t-81 -34t-34 -81
t34 -81t81 -34z" />
    <glyph glyph-name="yen" unicode="&#xa5;" 
d="M57 315v65h140l-174 280h86l172 -270l170 270h86l-171 -280h136v-65h-174l-8 -19v-68h183v-65h-183v-163h-77v163h-185v65h185v68l-8 19h-178z" />
    <glyph glyph-name="brokenbar" unicode="&#xa6;" horiz-adv-x="234" 
d="M80 718h74v-374h-74v374zM80 156h74v-378h-74v378z" />
    <glyph glyph-name="section" unicode="&#xa7;" horiz-adv-x="499" 
d="M422 634l-4 -63q-109 15 -157 15q-64 0 -93 -22t-29 -70t30.5 -66.5t112.5 -33.5q88 -17 124.5 -46t36.5 -99q0 -67 -44 -131q37 -32 37 -100q0 -168 -191 -168q-28 0 -72 4t-73 8l-30 5l7 63q109 -15 164 -15q123 0 123 99q0 45 -29 60.5t-115 31.5q-90 17 -129 48
t-39 101q0 39 21 76t37 50q-44 32 -44 111q0 159 192 159q29 0 70 -4.5t68 -8.5zM252 332q-65 11 -92 22q-33 -55 -33 -88q0 -44 25 -63t88 -30q72 -14 102 -27q5 7 15 36.5t10 57.5q0 44 -25.5 62t-89.5 30z" />
    <glyph glyph-name="dieresis" unicode="&#xa8;" horiz-adv-x="236" 
d="M-12 621v90h72v-90h-72zM188 621v90h73v-90h-73z" />
    <glyph glyph-name="copyright" unicode="&#xa9;" horiz-adv-x="645" 
d="M59 434q0 116 75 194.5t189 78.5t188.5 -79.5t74.5 -193.5q0 -116 -74 -194.5t-190 -78.5q-112 0 -187.5 79t-75.5 194zM103 434q0 -96 62.5 -162.5t156.5 -66.5t157 66.5t63 162.5t-63 163t-157 67q-93 0 -156 -67t-63 -163zM400 340l4 -52q-37 -12 -78 -12
q-65 0 -91 37.5t-26 121.5q0 81 26.5 118.5t91.5 37.5q19 0 38 -2.5t29 -4.5l10 -3l-4 -53q-38 6 -70 6q-37 0 -48.5 -22.5t-11.5 -76.5q0 -53 12.5 -77.5t47.5 -24.5z" />
    <glyph glyph-name="ordfeminine" unicode="&#xaa;" horiz-adv-x="386" 
d="M302 560v-137q9 -11 30 -17l-2 -49q-38 0 -54 6t-29 20q-55 -26 -107 -26q-40 0 -63 25t-23 67q0 80 96 86l88 6v22q0 22 -12 31t-37 9l-115 -7l-2 48q69 15 120 15q57 0 83.5 -22t26.5 -77zM238 495l-77 -5q-22 -2 -31.5 -11t-9.5 -29q0 -39 36 -39q16 0 36.5 4.5
t33.5 8.5l12 4v67z" />
    <glyph glyph-name="guillemotleft" unicode="&#xab;" horiz-adv-x="539" 
d="M234 344l-124 -94l124 -105v-78l-189 151v60l189 143v-77zM472 344l-125 -94l125 -105v-78l-190 151v60l190 143v-77z" />
    <glyph glyph-name="logicalnot" unicode="&#xac;" 
d="M65 342h428v-225h-70v157h-358v68z" />
    <glyph glyph-name="registered" unicode="&#xae;" horiz-adv-x="645" 
d="M59 434q0 116 75 194.5t188 78.5q115 0 189.5 -79t74.5 -194q0 -116 -74 -194.5t-190 -78.5q-112 0 -187.5 79t-75.5 194zM103 434q0 -95 63 -162t156 -67q94 0 157 66.5t63 162.5t-63 163t-157 67q-93 0 -156 -67t-63 -163zM380 282l-50 107h-59v-107h-58v303h110
q57 0 85.5 -22t28.5 -73q0 -37 -11.5 -58.5t-39.5 -34.5l55 -115h-61zM270 538v-102h59q27 0 39 12t12 39q0 51 -62 51h-48z" />
    <glyph glyph-name="macron" unicode="&#xaf;" horiz-adv-x="236" 
d="M-14 624v59h275v-59h-275z" />
    <glyph glyph-name="degree" unicode="&#xb0;" 
d="M138 561q0 63 39.5 102t102.5 39t102.5 -39t39.5 -102t-39.5 -102t-102.5 -39t-102.5 39t-39.5 102zM189 561q0 -42 25 -67.5t66 -25.5t67 25.5t26 67.5q0 41 -26 67t-67 26t-66 -26t-25 -67z" />
    <glyph glyph-name="plusminus" unicode="&#xb1;" 
d="M55 293v68h189v126h70v-126h191v-68h-191v-127h-70v127h-189zM55 106h450v-68h-450v68z" />
    <glyph glyph-name="twosuperior" unicode="&#xb2;" horiz-adv-x="280" 
d="M239 478h-209v55l88 87q51 49 51 83q0 37 -49 37l-85 -9l-2 57q59 12 103 12q51 0 75 -22t24 -69q0 -33 -14 -57.5t-47 -54.5l-63 -61h128v-58z" />
    <glyph glyph-name="threesuperior" unicode="&#xb3;" horiz-adv-x="280" 
d="M34 790q59 10 102 10q105 0 105 -84q0 -51 -39 -73q24 -8 35.5 -24.5t11.5 -53.5q0 -97 -106 -97q-22 0 -50 2.5t-45 5.5l-18 2l4 56q57 -8 100 -8q50 0 50 42q0 43 -47 43h-65v53h65q14 0 26 13t12 31q0 34 -45 34l-92 -7z" />
    <glyph glyph-name="acute" unicode="&#xb4;" horiz-adv-x="268" 
d="M26 642l216 98l26 -64l-221 -85z" />
    <glyph glyph-name="mu" unicode="&#xb5;" 
d="M401 500h75v-500h-75v35q-75 -45 -148 -45q-58 0 -94 17v-229h-75v722h75v-260q0 -109 19 -146t86 -37q33 0 67 9.5t52 18.5l18 9v406z" />
    <glyph glyph-name="paragraph" unicode="&#xb6;" horiz-adv-x="593" 
d="M411 0v627h-116v-627h-67v324h-7q-81 0 -133.5 51t-52.5 132t53 133t134 52h329v-65h-72v-627h-68z" />
    <glyph glyph-name="periodcentered" unicode="&#xb7;" horiz-adv-x="217" 
d="M68 229v114h82v-114h-82z" />
    <glyph glyph-name="cedilla" unicode="&#xb8;" horiz-adv-x="263" 
d="M221 -127q0 -90 -93 -90q-20 0 -41.5 1.5t-32.5 3.5l-12 2l3 48q39 -3 66 -3q44 0 44 38q0 34 -44 34h-42v94h41v-50q59 0 85 -16t26 -62z" />
    <glyph glyph-name="onesuperior" unicode="&#xb9;" horiz-adv-x="280" 
d="M32 720l101 70h60v-312h-64v242l-68 -47z" />
    <glyph glyph-name="ordmasculine" unicode="&#xba;" horiz-adv-x="380" 
d="M191 659q68 0 101.5 -36t33.5 -113q0 -153 -135 -153q-138 0 -138 153q0 77 34.5 113t103.5 36zM191 418q37 0 51.5 21.5t14.5 70.5t-14.5 68.5t-51.5 19.5q-38 0 -53.5 -20t-15.5 -68q0 -49 15.5 -70.5t53.5 -21.5z" />
    <glyph glyph-name="guillemotright" unicode="&#xbb;" horiz-adv-x="539" 
d="M429 250l-125 94v77l190 -143v-60l-190 -151v78zM192 250l-125 94v77l189 -143v-60l-189 -151v78z" />
    <glyph glyph-name="onequarter" unicode="&#xbc;" horiz-adv-x="534" 
d="M37 720l101 70h60v-312h-64v242l-68 -47zM35 28l392 632l40 -26l-393 -631zM412 -100v48h-141v54l69 210h70l-73 -206h75l5 89h58v-89h27v-58h-27v-48h-63z" />
    <glyph glyph-name="onehalf" unicode="&#xbd;" horiz-adv-x="529" 
d="M41 720l101 70h60v-312h-64v242l-68 -47zM33 28l392 632l40 -26l-393 -631zM486 -100h-209v55l88 87q51 49 51 83q0 37 -49 37l-85 -9l-2 57q59 12 103 12q51 0 75 -22t24 -69q0 -33 -14 -57.5t-47 -54.5l-63 -61h128v-58z" />
    <glyph glyph-name="threequarters" unicode="&#xbe;" horiz-adv-x="550" 
d="M53 790q59 10 102 10q105 0 105 -84q0 -51 -39 -73q24 -8 35.5 -24.5t11.5 -53.5q0 -97 -106 -97q-22 0 -50 2.5t-46 5.5l-17 2l4 56q57 -8 100 -8q50 0 50 42q0 43 -47 43h-65v53h65q14 0 26 13t12 31q0 34 -45 34l-92 -7zM52 28l392 632l40 -26l-393 -631zM429 -100v48
h-141v54l69 210h70l-73 -206h75l5 89h58v-89h27v-58h-27v-48h-63z" />
    <glyph glyph-name="questiondown" unicode="&#xbf;" horiz-adv-x="441" 
d="M38 -41q0 65 17.5 98.5t75.5 82.5q49 40 69 66.5t20 58.5v35h63q13 -27 13 -61t-23 -63.5t-70 -69.5q-55 -48 -72 -74t-17 -67q0 -52 32 -75t101 -23q25 0 63.5 5.5t65.5 11.5l26 6l5 -61q-101 -30 -167 -30q-103 0 -152.5 37.5t-49.5 122.5zM294 500v-112h-82v112h82z
" />
    <glyph glyph-name="Agrave" unicode="&#xc0;" horiz-adv-x="596" 
d="M24 0l190 692h168l190 -692h-76l-50 178h-296l-50 -178h-76zM272 626l-105 -379h262l-105 379h-52zM189 931l216 -100l-23 -53l-219 87z" />
    <glyph glyph-name="Aacute" unicode="&#xc1;" horiz-adv-x="596" 
d="M24 0l190 692h168l190 -692h-76l-50 178h-296l-50 -178h-76zM272 626l-105 -379h262l-105 379h-52zM186 831l216 100l26 -66l-219 -87z" />
    <glyph glyph-name="Acircumflex" unicode="&#xc2;" horiz-adv-x="596" 
d="M24 0l190 692h168l190 -692h-76l-50 178h-296l-50 -178h-76zM272 626l-105 -379h262l-105 379h-52zM130 791l134 135h65l134 -135h-84l-82 80l-83 -80h-84z" />
    <glyph glyph-name="Atilde" unicode="&#xc3;" horiz-adv-x="596" 
d="M24 0l190 692h168l190 -692h-76l-50 178h-296l-50 -178h-76zM272 626l-105 -379h262l-105 379h-52zM444 915l18 -56q-5 -6 -13.5 -15.5t-30.5 -25t-40 -15.5q-25 0 -87 27t-76 27q-11 0 -29 -12t-31 -24l-13 -12l-17 56q5 6 14.5 16t33 26t41.5 16q28 0 89 -27t73 -27
q9 0 26 11.5t30 23.5z" />
    <glyph glyph-name="Adieresis" unicode="&#xc4;" horiz-adv-x="596" 
d="M24 0l190 692h168l190 -692h-76l-50 178h-296l-50 -178h-76zM272 626l-105 -379h262l-105 379h-52zM159 808v90h73v-90h-73zM363 808v90h72v-90h-72z" />
    <glyph glyph-name="Aring" unicode="&#xc5;" horiz-adv-x="596" 
d="M415 744q0 -43 -28 -73l185 -671h-76l-50 178h-296l-50 -178h-76l184 669q-30 28 -30 75q0 49 33.5 77t85.5 28t85 -28t33 -77zM272 626l-105 -379h262l-105 379h-52zM235 744q0 -44 43 -52h37q44 8 44 52q0 25 -16.5 39t-45.5 14q-62 0 -62 -53z" />
    <glyph glyph-name="AE" unicode="&#xc6;" horiz-adv-x="876" 
d="M408 0v175h-251l-58 -175h-79l224 696h585v-73h-345v-230h285v-73h-285v-247h345v-73h-421zM300 623l-122 -374h230l1 374h-109z" />
    <glyph glyph-name="Ccedilla" unicode="&#xc7;" horiz-adv-x="544" 
d="M433 -127q0 -90 -93 -90q-20 0 -41.5 1.5t-32.5 3.5l-12 2l3 48q39 -3 66 -3q44 0 44 38q0 34 -44 34h-42v84q-129 9 -175.5 93.5t-46.5 259.5q0 93 10.5 155.5t38 110.5t77.5 70t127 22q83 0 191 -22l-3 -65q-101 18 -180 18q-110 0 -145.5 -65.5t-35.5 -223.5
q0 -79 6.5 -127t25.5 -86.5t55.5 -55t95.5 -16.5q82 0 178 18l3 -66q-92 -20 -181 -21v-39q59 0 85 -16t26 -62z" />
    <glyph glyph-name="Egrave" unicode="&#xc8;" horiz-adv-x="553" 
d="M85 0v692h421v-68h-344v-239h284v-67h-284v-250h344v-68h-421zM195 931l216 -100l-23 -53l-219 87z" />
    <glyph glyph-name="Eacute" unicode="&#xc9;" horiz-adv-x="553" 
d="M85 0v692h421v-68h-344v-239h284v-67h-284v-250h344v-68h-421zM176 831l216 100l26 -66l-219 -87z" />
    <glyph glyph-name="Ecircumflex" unicode="&#xca;" horiz-adv-x="553" 
d="M85 0v692h421v-68h-344v-239h284v-67h-284v-250h344v-68h-421zM127 791l134 135h65l134 -135h-84l-82 80l-83 -80h-84z" />
    <glyph glyph-name="Edieresis" unicode="&#xcb;" horiz-adv-x="553" 
d="M85 0v692h421v-68h-344v-239h284v-67h-284v-250h344v-68h-421zM157 808v90h73v-90h-73zM361 808v90h72v-90h-72z" />
    <glyph glyph-name="Igrave" unicode="&#xcc;" horiz-adv-x="246" 
d="M85 0v692h77v-692h-77zM6 931l216 -100l-23 -53l-219 87z" />
    <glyph glyph-name="Iacute" unicode="&#xcd;" horiz-adv-x="246" 
d="M85 0v692h77v-692h-77zM13 831l216 100l26 -66l-219 -87z" />
    <glyph glyph-name="Icircumflex" unicode="&#xce;" horiz-adv-x="246" 
d="M85 0v692h77v-692h-77zM-47 791l134 135h65l134 -135h-84l-82 80l-83 -80h-84z" />
    <glyph glyph-name="Idieresis" unicode="&#xcf;" horiz-adv-x="246" 
d="M85 0v692h77v-692h-77zM-15 808v90h73v-90h-73zM189 808v90h72v-90h-72z" />
    <glyph glyph-name="Eth" unicode="&#xd0;" horiz-adv-x="647" 
d="M20 311v73h68v312h247q141 0 198.5 -88t57.5 -249q0 -80 -12 -141t-39.5 -112t-79 -78.5t-125.5 -27.5h-247v311h-68zM511 359q0 59 -7.5 103.5t-26.5 82.5t-54.5 58t-87.5 20h-171v-239h158v-73h-158v-238h171q176 0 176 286z" />
    <glyph glyph-name="Ntilde" unicode="&#xd1;" horiz-adv-x="676" 
d="M85 0v692h144l265 -624h21v624h76v-692h-141l-269 624h-19v-624h-77zM486 915l18 -56q-5 -6 -13.5 -15.5t-30.5 -25t-40 -15.5q-25 0 -87 27t-76 27q-11 0 -29 -12t-31 -24l-13 -12l-17 56q5 6 14.5 16t33 26t41.5 16q28 0 89 -27t73 -27q9 0 26 11.5t30 23.5z" />
    <glyph glyph-name="Ograve" unicode="&#xd2;" horiz-adv-x="660" 
d="M330 58q115 0 154.5 65t39.5 220q0 151 -41 221t-153 70q-113 0 -153.5 -69.5t-40.5 -221.5t40 -218.5t154 -66.5zM330 -10q-155 0 -214 85t-59 268q0 182 60 270.5t213 88.5t213.5 -88t60.5 -271q0 -187 -59 -270t-215 -83zM227 931l216 -100l-23 -53l-219 87z" />
    <glyph glyph-name="Oacute" unicode="&#xd3;" horiz-adv-x="660" 
d="M330 58q115 0 154.5 65t39.5 220q0 151 -41 221t-153 70q-113 0 -153.5 -69.5t-40.5 -221.5t40 -218.5t154 -66.5zM330 -10q-155 0 -214 85t-59 268q0 182 60 270.5t213 88.5t213.5 -88t60.5 -271q0 -187 -59 -270t-215 -83zM198 831l216 100l26 -66l-219 -87z" />
    <glyph glyph-name="Ocircumflex" unicode="&#xd4;" horiz-adv-x="660" 
d="M330 58q115 0 154.5 65t39.5 220q0 151 -41 221t-153 70q-113 0 -153.5 -69.5t-40.5 -221.5t40 -218.5t154 -66.5zM330 -10q-155 0 -214 85t-59 268q0 182 60 270.5t213 88.5t213.5 -88t60.5 -271q0 -187 -59 -270t-215 -83zM164 791l134 135h65l134 -135h-84l-82 80
l-83 -80h-84z" />
    <glyph glyph-name="Otilde" unicode="&#xd5;" horiz-adv-x="660" 
d="M330 58q115 0 154.5 65t39.5 220q0 151 -41 221t-153 70q-113 0 -153.5 -69.5t-40.5 -221.5t40 -218.5t154 -66.5zM330 -10q-155 0 -214 85t-59 268q0 182 60 270.5t213 88.5t213.5 -88t60.5 -271q0 -187 -59 -270t-215 -83zM478 915l18 -56q-5 -6 -13.5 -15.5t-30.5 -25
t-40 -15.5q-25 0 -87 27t-76 27q-11 0 -29 -12t-31 -24l-13 -12l-17 56q5 6 14.5 16t33 26t41.5 16q28 0 89 -27t73 -27q9 0 26 11.5t30 23.5z" />
    <glyph glyph-name="Odieresis" unicode="&#xd6;" horiz-adv-x="660" 
d="M330 58q115 0 154.5 65t39.5 220q0 151 -41 221t-153 70q-113 0 -153.5 -69.5t-40.5 -221.5t40 -218.5t154 -66.5zM330 -10q-155 0 -214 85t-59 268q0 182 60 270.5t213 88.5t213.5 -88t60.5 -271q0 -187 -59 -270t-215 -83zM192 808v90h73v-90h-73zM396 808v90h72v-90
h-72z" />
    <glyph glyph-name="multiply" unicode="&#xd7;" 
d="M120 459l160 -162l161 163l48 -48l-163 -161l163 -161l-48 -48l-161 162l-161 -162l-48 48l162 161l-162 160z" />
    <glyph glyph-name="Oslash" unicode="&#xd8;" horiz-adv-x="660" 
d="M330 -10q-69 0 -120 17l-57 -123l-57 26l59 126q-53 40 -75.5 115t-22.5 192q0 182 60 270.5t213 88.5q75 0 126 -21l56 118l58 -24l-59 -127q93 -78 93 -305q0 -187 -59 -270t-215 -83zM136 343q0 -177 52 -235l238 507q-38 19 -96 19q-113 0 -153.5 -69.5t-40.5 -221.5
zM330 58q115 0 154.5 65t39.5 220q0 167 -48 231l-235 -502q34 -14 89 -14z" />
    <glyph glyph-name="Ugrave" unicode="&#xd9;" horiz-adv-x="644" 
d="M157 208q0 -150 162 -150q84 0 126.5 35.5t42.5 114.5v484h76v-482q0 -116 -61.5 -168t-183.5 -52q-118 0 -178.5 52t-60.5 168v482h77v-484zM222 931l216 -100l-23 -53l-219 87z" />
    <glyph glyph-name="Uacute" unicode="&#xda;" horiz-adv-x="644" 
d="M157 208q0 -150 162 -150q84 0 126.5 35.5t42.5 114.5v484h76v-482q0 -116 -61.5 -168t-183.5 -52q-118 0 -178.5 52t-60.5 168v482h77v-484zM199 831l216 100l26 -66l-219 -87z" />
    <glyph glyph-name="Ucircumflex" unicode="&#xdb;" horiz-adv-x="644" 
d="M157 208q0 -150 162 -150q84 0 126.5 35.5t42.5 114.5v484h76v-482q0 -116 -61.5 -168t-183.5 -52q-118 0 -178.5 52t-60.5 168v482h77v-484zM155 791l134 135h65l134 -135h-84l-82 80l-83 -80h-84z" />
    <glyph glyph-name="Udieresis" unicode="&#xdc;" horiz-adv-x="644" 
d="M157 208q0 -150 162 -150q84 0 126.5 35.5t42.5 114.5v484h76v-482q0 -116 -61.5 -168t-183.5 -52q-118 0 -178.5 52t-60.5 168v482h77v-484zM184 808v90h73v-90h-73zM388 808v90h72v-90h-72z" />
    <glyph glyph-name="Yacute" unicode="&#xdd;" horiz-adv-x="538" 
d="M308 291v-291h-77v291l-221 401h87l172 -324l172 324h87zM167 831l216 100l26 -66l-219 -87z" />
    <glyph glyph-name="Thorn" unicode="&#xde;" horiz-adv-x="599" 
d="M337 195q144 0 144 166q0 78 -34.5 113.5t-109.5 35.5h-175v-315h175zM338 121h-176v-121h-77v696h77v-112h176q113 0 167.5 -55t54.5 -168q0 -116 -55.5 -178t-166.5 -62z" />
    <glyph glyph-name="germandbls" unicode="&#xdf;" horiz-adv-x="574" 
d="M147 0h-75v545q0 101 45.5 142t150.5 41q103 0 148.5 -34t45.5 -110q0 -53 -19 -81.5t-63 -47.5q-36 -16 -47.5 -25t-11.5 -24q0 -16 16.5 -29t71.5 -40q75 -37 102.5 -69t27.5 -91q0 -102 -45.5 -144.5t-155.5 -42.5q-22 0 -55 3.5t-55 7.5l-21 4l3 63q85 -11 122 -11
q72 0 100.5 26.5t28.5 82.5q0 41 -21 63t-88 54q-63 30 -86 54t-23 63q0 36 18.5 56.5t58.5 38.5q38 16 51 34.5t13 50.5q0 45 -25.5 63t-90.5 18q-68 0 -94.5 -26t-26.5 -99v-536z" />
    <glyph glyph-name="agrave" unicode="&#xe0;" horiz-adv-x="501" 
d="M425 349v-256q3 -37 58 -44l-3 -59q-79 0 -119 40q-90 -40 -180 -40q-69 0 -105 39t-36 114q0 71 37 105.5t116 42.5l157 15v43q0 51 -22 73t-68 22q-31 0 -78.5 -3t-79.5 -7l-31 -3l-3 57q110 22 196 22q84 0 122.5 -39t38.5 -122zM350 249l-148 -14q-45 -4 -65 -26
t-20 -64q0 -92 76 -92q33 0 72 7.5t62 15.5l23 8v165zM147 740l216 -98l-21 -51l-221 85z" />
    <glyph glyph-name="aacute" unicode="&#xe1;" horiz-adv-x="501" 
d="M425 349v-256q3 -37 58 -44l-3 -59q-79 0 -119 40q-90 -40 -180 -40q-69 0 -105 39t-36 114q0 71 37 105.5t116 42.5l157 15v43q0 51 -22 73t-68 22q-31 0 -78.5 -3t-79.5 -7l-31 -3l-3 57q110 22 196 22q84 0 122.5 -39t38.5 -122zM350 249l-148 -14q-45 -4 -65 -26
t-20 -64q0 -92 76 -92q33 0 72 7.5t62 15.5l23 8v165zM118 642l216 98l26 -64l-221 -85z" />
    <glyph glyph-name="acircumflex" unicode="&#xe2;" horiz-adv-x="501" 
d="M425 349v-256q3 -37 58 -44l-3 -59q-79 0 -119 40q-90 -40 -180 -40q-69 0 -105 39t-36 114q0 71 37 105.5t116 42.5l157 15v43q0 51 -22 73t-68 22q-31 0 -78.5 -3t-79.5 -7l-31 -3l-3 57q110 22 196 22q84 0 122.5 -39t38.5 -122zM350 249l-148 -14q-45 -4 -65 -26
t-20 -64q0 -92 76 -92q33 0 72 7.5t62 15.5l23 8v165zM95 592l123 140h51l124 -140h-75l-73 87l-75 -87h-75z" />
    <glyph glyph-name="atilde" unicode="&#xe3;" horiz-adv-x="501" 
d="M425 349v-256q3 -37 58 -44l-3 -59q-79 0 -119 40q-90 -40 -180 -40q-69 0 -105 39t-36 114q0 71 37 105.5t116 42.5l157 15v43q0 51 -22 73t-68 22q-31 0 -78.5 -3t-79.5 -7l-31 -3l-3 57q110 22 196 22q84 0 122.5 -39t38.5 -122zM350 249l-148 -14q-45 -4 -65 -26
t-20 -64q0 -92 76 -92q33 0 72 7.5t62 15.5l23 8v165zM376 711l17 -48q-46 -51 -86 -51q-21 0 -72.5 23.5t-66.5 23.5q-11 0 -29 -10t-31 -20l-13 -10l-18 48q50 52 91 52q21 0 73 -23t66 -23q9 0 26.5 9.5t30.5 19.5z" />
    <glyph glyph-name="adieresis" unicode="&#xe4;" horiz-adv-x="501" 
d="M425 349v-256q3 -37 58 -44l-3 -59q-79 0 -119 40q-90 -40 -180 -40q-69 0 -105 39t-36 114q0 71 37 105.5t116 42.5l157 15v43q0 51 -22 73t-68 22q-31 0 -78.5 -3t-79.5 -7l-31 -3l-3 57q110 22 196 22q84 0 122.5 -39t38.5 -122zM350 249l-148 -14q-45 -4 -65 -26
t-20 -64q0 -92 76 -92q33 0 72 7.5t62 15.5l23 8v165zM105 621v90h72v-90h-72zM305 621v90h73v-90h-73z" />
    <glyph glyph-name="aring" unicode="&#xe5;" horiz-adv-x="501" 
d="M425 349v-256q3 -37 58 -44l-3 -59q-79 0 -119 40q-90 -40 -180 -40q-69 0 -105 39t-36 114q0 71 37 105.5t116 42.5l157 15v43q0 51 -22 73t-68 22q-31 0 -78.5 -3t-79.5 -7l-31 -3l-3 57q110 22 196 22q84 0 122.5 -39t38.5 -122zM350 249l-148 -14q-45 -4 -65 -26
t-20 -64q0 -92 76 -92q33 0 72 7.5t62 15.5l23 8v165zM151 645q0 44 30 74t74 30q43 0 73 -30t30 -74t-29.5 -74t-73.5 -30t-74 30t-30 74zM200 645q0 -24 16 -40.5t39 -16.5t39 16.5t16 40.5q0 23 -16 39.5t-39 16.5t-39 -16.5t-16 -39.5z" />
    <glyph glyph-name="ae" unicode="&#xe6;" horiz-adv-x="804" 
d="M556 58q33 0 79 2.5t75 4.5l29 2l2 -61q-113 -16 -194 -16q-99 0 -147 54l-32 -14q-87 -40 -192 -40q-67 0 -101.5 39.5t-34.5 113.5q0 80 41 110.5t140 40.5l129 12v41q0 91 -87 91q-33 0 -80.5 -2.5t-78.5 -5.5l-31 -2l-3 67q119 15 197 15q102 0 135 -73q48 73 156 73
q101 0 151 -56.5t50 -177.5l-4 -58h-330q0 -82 30 -121t101 -39zM188 55q46 0 105 14.5t74 22.5q-19 51 -19 153l-146 -12q-44 -4 -64.5 -25t-20.5 -63q0 -90 71 -90zM425 279h259q0 89 -29.5 126.5t-96.5 37.5q-66 0 -99.5 -39t-33.5 -125z" />
    <glyph glyph-name="ccedilla" unicode="&#xe7;" horiz-adv-x="436" 
d="M360 -127q0 -90 -93 -90q-20 0 -41.5 1.5t-33.5 3.5l-11 2l3 48q39 -3 66 -3q44 0 44 38q0 34 -44 34h-42v86q-88 10 -122.5 71t-34.5 195q0 136 48 193.5t160 57.5q20 0 54 -4t58 -8l24 -3l-3 -61q-80 9 -118 9q-85 0 -115.5 -40.5t-30.5 -143.5q0 -116 28.5 -159
t118.5 -43l118 9l3 -62q-93 -14 -139 -14h-8v-39q59 0 85 -16t26 -62z" />
    <glyph glyph-name="egrave" unicode="&#xe8;" horiz-adv-x="505" 
d="M257 56q33 0 79 2t76 4l29 3l2 -59q-114 -16 -195 -16q-108 0 -153 62.5t-45 194.5q0 263 209 263q101 0 151 -56.5t50 -177.5l-4 -57h-330q0 -83 30 -123t101 -40zM125 279h260q0 92 -29.5 130t-96.5 38q-66 0 -99.5 -40t-34.5 -128zM147 741l216 -98l-21 -51l-221 85z
" />
    <glyph glyph-name="eacute" unicode="&#xe9;" horiz-adv-x="505" 
d="M257 56q33 0 79 2t76 4l29 3l2 -59q-114 -16 -195 -16q-108 0 -153 62.5t-45 194.5q0 263 209 263q101 0 151 -56.5t50 -177.5l-4 -57h-330q0 -83 30 -123t101 -40zM125 279h260q0 92 -29.5 130t-96.5 38q-66 0 -99.5 -40t-34.5 -128zM145 642l216 98l26 -64l-221 -85z
" />
    <glyph glyph-name="ecircumflex" unicode="&#xea;" horiz-adv-x="505" 
d="M257 56q33 0 79 2t76 4l29 3l2 -59q-114 -16 -195 -16q-108 0 -153 62.5t-45 194.5q0 263 209 263q101 0 151 -56.5t50 -177.5l-4 -57h-330q0 -83 30 -123t101 -40zM125 279h260q0 92 -29.5 130t-96.5 38q-66 0 -99.5 -40t-34.5 -128zM112 592l123 140h51l124 -140h-75
l-73 87l-75 -87h-75z" />
    <glyph glyph-name="edieresis" unicode="&#xeb;" horiz-adv-x="505" 
d="M257 56q33 0 79 2t76 4l29 3l2 -59q-114 -16 -195 -16q-108 0 -153 62.5t-45 194.5q0 263 209 263q101 0 151 -56.5t50 -177.5l-4 -57h-330q0 -83 30 -123t101 -40zM125 279h260q0 92 -29.5 130t-96.5 38q-66 0 -99.5 -40t-34.5 -128zM120 621v90h72v-90h-72zM320 621v90
h73v-90h-73z" />
    <glyph glyph-name="igrave" unicode="&#xec;" horiz-adv-x="219" 
d="M72 0v500h75v-500h-75zM-34 740l216 -98l-21 -51l-221 85z" />
    <glyph glyph-name="iacute" unicode="&#xed;" horiz-adv-x="219" 
d="M38 642l216 98l26 -64l-221 -85zM72 500v-500h75v500h-75z" />
    <glyph glyph-name="icircumflex" unicode="&#xee;" horiz-adv-x="219" 
d="M72 500v-500h75v500h-75zM-42 592l123 140h51l124 -140h-75l-73 87l-75 -87h-75z" />
    <glyph glyph-name="idieresis" unicode="&#xef;" horiz-adv-x="219" 
d="M72 500v-500h75v500h-75zM-31 621v90h72v-90h-72zM169 621v90h73v-90h-73z" />
    <glyph glyph-name="eth" unicode="&#xf0;" horiz-adv-x="548" 
d="M158 520l-33 47l95 64q-54 23 -124 41l15 56q100 -20 173 -54l101 68l34 -47l-77 -52q154 -98 154 -291q0 -194 -54 -277.5t-177 -83.5q-107 0 -165 57.5t-58 166.5q0 98 55 156.5t155 58.5q33 0 74 -9t66 -18l25 -9q-7 130 -137 207zM256 363q-64 0 -99.5 -41.5
t-35.5 -106.5q0 -75 36.5 -115.5t107.5 -40.5q82 0 117 59t36 209q-90 36 -162 36z" />
    <glyph glyph-name="ntilde" unicode="&#xf1;" horiz-adv-x="537" 
d="M72 0h75v406q69 37 141 37q67 0 87.5 -38.5t20.5 -142.5v-262h74v264q0 138 -34.5 192t-134.5 54q-33 0 -71.5 -11t-61.5 -23l-22 -11v35h-74v-500zM418 711l17 -48q-46 -51 -86 -51q-21 0 -72.5 23.5t-66.5 23.5q-11 0 -29 -10t-31 -20l-13 -10l-18 48q50 52 91 52
q21 0 73 -23t66 -23q9 0 26.5 9.5t30.5 19.5z" />
    <glyph glyph-name="ograve" unicode="&#xf2;" horiz-adv-x="528" 
d="M264 510q117 0 165.5 -61t48.5 -193q0 -142 -46 -204t-168 -62t-168 62t-46 204q0 132 49 193t165 61zM264 55q85 0 111 43.5t26 157.5q0 106 -29 147.5t-108 41.5q-78 0 -107.5 -41.5t-29.5 -147.5q0 -113 26.5 -157t110.5 -44zM167 740l216 -98l-21 -51l-221 85z" />
    <glyph glyph-name="oacute" unicode="&#xf3;" horiz-adv-x="528" 
d="M264 510q-116 0 -165 -61t-49 -193q0 -142 46 -204t168 -62t168 62t46 204q0 132 -48.5 193t-165.5 61zM264 55q-84 0 -110.5 44t-26.5 157q0 106 29.5 147.5t107.5 41.5q79 0 108 -41.5t29 -147.5q0 -114 -26 -157.5t-111 -43.5zM154 642l216 98l26 -64l-221 -85z" />
    <glyph glyph-name="ocircumflex" unicode="&#xf4;" horiz-adv-x="528" 
d="M264 510q-116 0 -165 -61t-49 -193q0 -142 46 -204t168 -62t168 62t46 204q0 132 -48.5 193t-165.5 61zM264 55q-84 0 -110.5 44t-26.5 157q0 106 29.5 147.5t107.5 41.5q79 0 108 -41.5t29 -147.5q0 -114 -26 -157.5t-111 -43.5zM113 592l123 140h51l124 -140h-75
l-73 87l-75 -87h-75z" />
    <glyph glyph-name="otilde" unicode="&#xf5;" horiz-adv-x="528" 
d="M264 510q-116 0 -165 -61t-49 -193q0 -142 46 -204t168 -62t168 62t46 204q0 132 -48.5 193t-165.5 61zM264 55q-84 0 -110.5 44t-26.5 157q0 106 29.5 147.5t107.5 41.5q79 0 108 -41.5t29 -147.5q0 -114 -26 -157.5t-111 -43.5zM404 711l17 -48q-46 -51 -86 -51
q-21 0 -72.5 23.5t-66.5 23.5q-11 0 -29 -10t-31 -20l-13 -10l-18 48q50 52 91 52q21 0 73 -23t66 -23q9 0 26.5 9.5t30.5 19.5z" />
    <glyph glyph-name="odieresis" unicode="&#xf6;" horiz-adv-x="528" 
d="M264 510q-116 0 -165 -61t-49 -193q0 -142 46 -204t168 -62t168 62t46 204q0 132 -48.5 193t-165.5 61zM264 55q-84 0 -110.5 44t-26.5 157q0 106 29.5 147.5t107.5 41.5q79 0 108 -41.5t29 -147.5q0 -114 -26 -157.5t-111 -43.5zM125 621v90h72v-90h-72zM325 621v90h73
v-90h-73z" />
    <glyph glyph-name="divide" unicode="&#xf7;" 
d="M120 281v73h57v48h206v-48h56v-73h-319zM242 30v101h75v-101h-75z" />
    <glyph glyph-name="oslash" unicode="&#xf8;" horiz-adv-x="528" 
d="M264 510q39 0 74 -8l43 104l50 -19l-43 -104q90 -50 90 -227q0 -142 -46 -204t-168 -62q-41 0 -76 8l-43 -110l-50 18l44 109q-49 27 -69 85t-20 156q0 132 49 193t165 61zM264 445q-78 0 -107.5 -41.5t-29.5 -147.5q0 -73 8.5 -114t33.5 -62l145 359q-21 6 -50 6z
M264 55q85 0 111 43.5t26 157.5q0 123 -42 161l-146 -357q18 -5 51 -5z" />
    <glyph glyph-name="ugrave" unicode="&#xf9;" horiz-adv-x="531" 
d="M384 500h75v-500h-75v35q-75 -45 -148 -45q-102 0 -135.5 53t-33.5 196v261h75v-260q0 -109 19 -146t86 -37q33 0 67 9.5t52 18.5l18 9v406zM140 740l216 -98l-21 -51l-221 85z" />
    <glyph glyph-name="uacute" unicode="&#xfa;" horiz-adv-x="531" 
d="M459 500h-75v-406q-63 -37 -137 -37q-67 0 -86 37t-19 146v260h-75v-261q0 -143 33.5 -196t135.5 -53q32 0 69 11t58 23l21 11v-35h75v500zM155 642l216 98l26 -64l-221 -85z" />
    <glyph glyph-name="ucircumflex" unicode="&#xfb;" horiz-adv-x="531" 
d="M459 500h-75v-406q-63 -37 -137 -37q-67 0 -86 37t-19 146v260h-75v-261q0 -143 33.5 -196t135.5 -53q32 0 69 11t58 23l21 11v-35h75v500zM105 592l123 140h51l124 -140h-75l-73 87l-75 -87h-75z" />
    <glyph glyph-name="udieresis" unicode="&#xfc;" horiz-adv-x="531" 
d="M459 500h-75v-406q-63 -37 -137 -37q-67 0 -86 37t-19 146v260h-75v-261q0 -143 33.5 -196t135.5 -53q32 0 69 11t58 23l21 11v-35h75v500zM132 621v90h72v-90h-72zM332 621v90h73v-90h-73z" />
    <glyph glyph-name="yacute" unicode="&#xfd;" horiz-adv-x="483" 
d="M25 500h75l125 -435h33l126 435h75l-208 -722h-75l65 222h-74zM154 642l216 98l26 -64l-221 -85z" />
    <glyph glyph-name="thorn" unicode="&#xfe;" horiz-adv-x="527" 
d="M244 55q94 0 124.5 45.5t30.5 156.5q0 100 -24.5 143t-88.5 43q-31 0 -65.5 -7.5t-54.5 -14.5l-19 -7v-353q65 -6 97 -6zM293 510q101 0 142 -57.5t41 -193.5q0 -150 -49.5 -209.5t-178.5 -59.5l-101 7v-219h-75v940h75v-243q75 35 146 35z" />
    <glyph glyph-name="ydieresis" unicode="&#xff;" horiz-adv-x="483" 
d="M25 500h75l125 -435h33l126 435h75l-208 -722h-75l65 222h-74zM104 621v90h72v-90h-72zM304 621v90h73v-90h-73z" />
    <glyph glyph-name="Amacron" unicode="&#x100;" horiz-adv-x="596" 
d="M24 0l190 692h168l190 -692h-76l-50 178h-296l-50 -178h-76zM272 626l-105 -379h262l-105 379h-52zM141 812v58h311v-58h-311z" />
    <glyph glyph-name="amacron" unicode="&#x101;" horiz-adv-x="501" 
d="M425 349v-256q3 -37 58 -44l-3 -59q-79 0 -119 40q-90 -40 -180 -40q-69 0 -105 39t-36 114q0 71 37 105.5t116 42.5l157 15v43q0 51 -22 73t-68 22q-31 0 -78.5 -3t-79.5 -7l-31 -3l-3 57q110 22 196 22q84 0 122.5 -39t38.5 -122zM350 249l-148 -14q-45 -4 -65 -26
t-20 -64q0 -92 76 -92q33 0 72 7.5t62 15.5l23 8v165zM112 624v59h275v-59h-275z" />
    <glyph glyph-name="Abreve" unicode="&#x102;" horiz-adv-x="596" 
d="M24 0l190 692h168l190 -692h-76l-50 178h-296l-50 -178h-76zM272 626l-105 -379h262l-105 379h-52zM139 918h69q1 -33 26.5 -54t61.5 -21q37 0 62 21t26 54h70q-3 -59 -46 -95t-112 -36t-111.5 36t-45.5 95z" />
    <glyph glyph-name="abreve" unicode="&#x103;" horiz-adv-x="503" 
d="M425 101v246q0 84 -39 123.5t-119 39.5q-35 0 -84.5 -5t-81.5 -10l-32 -5l3 -65q118 13 191 13q87 0 87 -91v-41l-157 -15q-79 -7 -116 -42t-37 -106q0 -73 35.5 -113t100.5 -40q43 0 89 9.5t71 18.5l25 10q37 -38 119 -38l2 65q-56 7 -57 46zM202 233l148 12v-160
q-87 -30 -162 -30q-34 0 -52.5 23.5t-18.5 66.5q0 80 85 88zM92 733h77q2 -34 23.5 -54.5t59.5 -20.5q39 0 61 20.5t23 54.5h77q-3 -63 -45.5 -102.5t-115.5 -39.5q-72 0 -114.5 39.5t-45.5 102.5z" />
    <glyph glyph-name="Aogonek" unicode="&#x104;" horiz-adv-x="596" 
d="M24 0l190 692h168l190 -692h-8q-70 -70 -70 -102q0 -19 11.5 -31t29.5 -12l50 6l7 -58q-45 -9 -79 -9q-40 0 -66 23.5t-26 63.5q0 31 25 64.5t50 55.5l-50 177h-296l-50 -178h-76zM272 626l-105 -379h262l-105 379h-52z" />
    <glyph glyph-name="aogonek" unicode="&#x105;" horiz-adv-x="500" 
d="M425 349v-256q3 -37 58 -44l-3 -59q-12 0 -34 2q-61 -64 -61 -94q0 -19 11.5 -31t29.5 -12l50 6l7 -58q-45 -9 -79 -9q-40 0 -66 23.5t-26 63.5q0 24 19 54t35.5 46.5t26.5 24.5q-16 8 -32 24q-90 -40 -180 -40q-69 0 -105 39t-36 114q0 71 37 105.5t116 42.5l157 15v43
q0 51 -22 73t-68 22q-31 0 -78.5 -3t-79.5 -7l-31 -3l-3 57q110 22 196 22q84 0 122.5 -39t38.5 -122zM350 249l-148 -14q-45 -4 -65 -26t-20 -64q0 -92 76 -92q33 0 72 7.5t62 15.5l23 8v165z" />
    <glyph glyph-name="Cacute" unicode="&#x106;" horiz-adv-x="544" 
d="M500 77l3 -66q-103 -21 -191 -21q-76 0 -126.5 22.5t-78 70t-38 109t-10.5 152.5q0 93 10.5 155.5t38 110.5t77.5 70t127 22q83 0 191 -22l-3 -65q-101 18 -180 18q-110 0 -145.5 -65.5t-35.5 -223.5q0 -79 6.5 -127t25.5 -86.5t55.5 -55t95.5 -16.5q82 0 178 18z
M181 831l216 100l26 -66l-219 -87z" />
    <glyph glyph-name="cacute" unicode="&#x107;" horiz-adv-x="436" 
d="M259 510q20 0 54 -4t58 -8l24 -3l-3 -61q-80 9 -118 9q-85 0 -115.5 -40.5t-30.5 -143.5q0 -116 28.5 -159t118.5 -43l118 9l3 -62q-93 -14 -139 -14q-117 0 -161.5 60t-44.5 209q0 136 48 193.5t160 57.5zM126 642l216 98l26 -64l-221 -85z" />
    <glyph glyph-name="Ccircumflex" unicode="&#x108;" horiz-adv-x="544" 
d="M500 77l3 -66q-103 -21 -191 -21q-76 0 -126.5 22.5t-78 70t-38 109t-10.5 152.5q0 93 10.5 155.5t38 110.5t77.5 70t127 22q83 0 191 -22l-3 -65q-101 18 -180 18q-110 0 -145.5 -65.5t-35.5 -223.5q0 -79 6.5 -127t25.5 -86.5t55.5 -55t95.5 -16.5q82 0 178 18z
M144 791l134 135h65l134 -135h-84l-82 80l-83 -80h-84z" />
    <glyph glyph-name="ccircumflex" unicode="&#x109;" horiz-adv-x="436" 
d="M259 510q20 0 54 -4t58 -8l24 -3l-3 -61q-80 9 -118 9q-85 0 -115.5 -40.5t-30.5 -143.5q0 -116 28.5 -159t118.5 -43l118 9l3 -62q-93 -14 -139 -14q-117 0 -161.5 60t-44.5 209q0 136 48 193.5t160 57.5zM83 592l123 140h51l124 -140h-75l-73 87l-75 -87h-75z" />
    <glyph glyph-name="Cdotaccent" unicode="&#x10a;" horiz-adv-x="544" 
d="M500 77l3 -66q-103 -21 -191 -21q-76 0 -126.5 22.5t-78 70t-38 109t-10.5 152.5q0 93 10.5 155.5t38 110.5t77.5 70t127 22q83 0 191 -22l-3 -65q-101 18 -180 18q-110 0 -145.5 -65.5t-35.5 -223.5q0 -79 6.5 -127t25.5 -86.5t55.5 -55t95.5 -16.5q82 0 178 18z
M255 798v87h74v-87h-74z" />
    <glyph glyph-name="cdotaccent" unicode="&#x10b;" horiz-adv-x="436" 
d="M259 510q20 0 54 -4t58 -8l24 -3l-3 -61q-80 9 -118 9q-85 0 -115.5 -40.5t-30.5 -143.5q0 -116 28.5 -159t118.5 -43l118 9l3 -62q-93 -14 -139 -14q-117 0 -161.5 60t-44.5 209q0 136 48 193.5t160 57.5zM214 609v87h74v-87h-74z" />
    <glyph glyph-name="Ccaron" unicode="&#x10c;" horiz-adv-x="544" 
d="M500 77l3 -66q-103 -21 -191 -21q-76 0 -126.5 22.5t-78 70t-38 109t-10.5 152.5q0 93 10.5 155.5t38 110.5t77.5 70t127 22q83 0 191 -22l-3 -65q-101 18 -180 18q-110 0 -145.5 -65.5t-35.5 -223.5q0 -79 6.5 -127t25.5 -86.5t55.5 -55t95.5 -16.5q82 0 178 18z
M271 791l-134 135h84l83 -80l82 80h84l-134 -135h-65z" />
    <glyph glyph-name="ccaron" unicode="&#x10d;" horiz-adv-x="436" 
d="M259 510q20 0 54 -4t58 -8l24 -3l-3 -61q-80 9 -118 9q-85 0 -115.5 -40.5t-30.5 -143.5q0 -116 28.5 -159t118.5 -43l118 9l3 -62q-93 -14 -139 -14q-117 0 -161.5 60t-44.5 209q0 136 48 193.5t160 57.5zM214 592l-123 140h74l75 -87l74 87h75l-125 -140h-50z" />
    <glyph glyph-name="Dcaron" unicode="&#x10e;" horiz-adv-x="645" 
d="M332 0h-247v692h247q59 0 103.5 -16.5t73.5 -45t47 -72t25 -92t7 -110.5q0 -79 -11.5 -140t-39.5 -111.5t-79.5 -77.5t-125.5 -27zM509 356q0 61 -7.5 106t-26.5 83.5t-55 58.5t-88 20h-170v-556h170q177 0 177 288zM262 791l-134 135h84l83 -80l82 80h84l-134 -135h-65z
" />
    <glyph glyph-name="dcaron" unicode="&#x10f;" horiz-adv-x="575" 
d="M558 683l-40 -207h65l49 207h-74zM456 718v-718h-74v34q-77 -44 -152 -44q-40 0 -70 10t-56.5 36.5t-40 79t-13.5 130.5q0 135 48.5 199.5t160.5 64.5q58 0 123 -13v221h74zM239 57q32 0 67.5 9.5t55.5 18.5l20 9v339q-64 12 -119 12q-76 0 -106 -48.5t-30 -150.5
q0 -58 9 -97.5t25.5 -58.5t34.5 -26t43 -7z" />
    <glyph glyph-name="Dcroat" unicode="&#x110;" horiz-adv-x="647" 
d="M20 311v73h68v312h247q141 0 198.5 -88t57.5 -249q0 -80 -12 -141t-39.5 -112t-79 -78.5t-125.5 -27.5h-247v311h-68zM511 359q0 59 -7.5 103.5t-26.5 82.5t-54.5 58t-87.5 20h-171v-239h158v-73h-158v-238h171q176 0 176 286z" />
    <glyph glyph-name="dcroat" unicode="&#x111;" horiz-adv-x="529" 
d="M456 718v-30h23v-66h-23v-622h-74v34q-77 -44 -152 -44q-40 0 -70 10t-56.5 36.5t-40 79t-13.5 130.5q0 135 48.5 199.5t160.5 64.5q58 0 123 -13v125h-194v66h194v30h74zM239 57q32 0 67.5 9.5t55.5 18.5l20 9v339q-64 12 -119 12q-76 0 -106 -48.5t-30 -150.5
q0 -58 9 -97.5t25.5 -58.5t34.5 -26t43 -7z" />
    <glyph glyph-name="Emacron" unicode="&#x112;" horiz-adv-x="553" 
d="M85 0v692h421v-68h-344v-239h284v-67h-284v-250h344v-68h-421zM138 812v58h311v-58h-311z" />
    <glyph glyph-name="emacron" unicode="&#x113;" horiz-adv-x="505" 
d="M257 56q33 0 79 2t76 4l29 3l2 -59q-114 -16 -195 -16q-108 0 -153 62.5t-45 194.5q0 263 209 263q101 0 151 -56.5t50 -177.5l-4 -57h-330q0 -83 30 -123t101 -40zM125 279h260q0 92 -29.5 130t-96.5 38q-66 0 -99.5 -40t-34.5 -128zM123 624v59h275v-59h-275z" />
    <glyph glyph-name="Ebreve" unicode="&#x114;" horiz-adv-x="553" 
d="M85 0v692h421v-68h-344v-239h284v-67h-284v-250h344v-68h-421zM147 918h69q1 -33 26.5 -54t61.5 -21q37 0 62 21t26 54h70q-3 -59 -46 -95t-112 -36t-111.5 36t-45.5 95z" />
    <glyph glyph-name="ebreve" unicode="&#x115;" horiz-adv-x="505" 
d="M257 56q33 0 79 2t76 4l29 3l2 -59q-114 -16 -195 -16q-108 0 -153 62.5t-45 194.5q0 263 209 263q101 0 151 -56.5t50 -177.5l-4 -57h-330q0 -83 30 -123t101 -40zM125 279h260q0 92 -29.5 130t-96.5 38q-66 0 -99.5 -40t-34.5 -128zM108 726h61q2 -38 25 -61t62 -23
q40 0 63 23t24 61h62q-3 -60 -43 -100t-106 -40q-65 0 -105 40t-43 100z" />
    <glyph glyph-name="Edotaccent" unicode="&#x116;" horiz-adv-x="553" 
d="M85 0v692h421v-68h-344v-239h284v-67h-284v-250h344v-68h-421zM260 801v87h74v-87h-74z" />
    <glyph glyph-name="edotaccent" unicode="&#x117;" horiz-adv-x="505" 
d="M257 56q33 0 79 2t76 4l29 3l2 -59q-114 -16 -195 -16q-108 0 -153 62.5t-45 194.5q0 263 209 263q101 0 151 -56.5t50 -177.5l-4 -57h-330q0 -83 30 -123t101 -40zM125 279h260q0 92 -29.5 130t-96.5 38q-66 0 -99.5 -40t-34.5 -128zM217 609v87h74v-87h-74z" />
    <glyph glyph-name="Eogonek" unicode="&#x118;" horiz-adv-x="553" 
d="M85 0v692h421v-68h-344v-239h284v-67h-284v-250h344v-68h-29q-70 -70 -70 -102q0 -19 11.5 -31t29.5 -12l50 6l7 -58q-45 -9 -79 -9q-40 0 -66 23.5t-26 63.5q0 31 24.5 64t49.5 55h-323z" />
    <glyph glyph-name="eogonek" unicode="&#x119;" horiz-adv-x="506" 
d="M414 1q-71 -70 -71 -103q0 -19 11.5 -31t29.5 -12l50 6l7 -58q-45 -9 -79 -9q-40 0 -66 23.5t-26 63.5q0 49 68 114q-52 -5 -90 -5q-108 0 -153 62.5t-45 194.5q0 263 209 263q101 0 151 -56.5t50 -177.5l-4 -57h-330q0 -83 30 -123t101 -40q33 0 79 2t76 4l29 3l2 -59
q-16 -2 -35 -5h6zM125 279h260q0 92 -29.5 130t-96.5 38q-66 0 -99.5 -40t-34.5 -128z" />
    <glyph glyph-name="Ecaron" unicode="&#x11a;" horiz-adv-x="553" 
d="M85 0v692h421v-68h-344v-239h284v-67h-284v-250h344v-68h-421zM258 791l-134 135h84l83 -80l82 80h84l-134 -135h-65z" />
    <glyph glyph-name="ecaron" unicode="&#x11b;" horiz-adv-x="505" 
d="M257 56q33 0 79 2t76 4l29 3l2 -59q-114 -16 -195 -16q-108 0 -153 62.5t-45 194.5q0 263 209 263q101 0 151 -56.5t50 -177.5l-4 -57h-330q0 -83 30 -123t101 -40zM125 279h260q0 92 -29.5 130t-96.5 38q-66 0 -99.5 -40t-34.5 -128zM227 592l-123 140h74l75 -87l74 87
h75l-125 -140h-50z" />
    <glyph glyph-name="Gcircumflex" unicode="&#x11c;" horiz-adv-x="616" 
d="M359 287v69h191v-340q-126 -24 -225 -24q-151 0 -209.5 87t-58.5 267q0 183 58.5 270.5t207.5 87.5q47 0 103.5 -6.5t89.5 -13.5l34 -6l-3 -64q-124 21 -215 21q-115 0 -155 -66.5t-40 -222.5q0 -153 40 -219.5t154 -66.5q70 0 143 14v213h-115zM156 788l134 135h65
l134 -135h-84l-82 80l-83 -80h-84z" />
    <glyph glyph-name="gcircumflex" unicode="&#x11d;" horiz-adv-x="514" 
d="M265 -235q-120 0 -167.5 32.5t-47.5 118.5q0 41 18 66.5t61 57.5q-28 19 -28 69q0 8 8.5 28t16.5 35l9 16q-79 36 -79 151q0 171 187 171q22 0 48 -3t41 -7l15 -3l148 4v-64l-95 2q33 -33 33 -100q0 -94 -46.5 -131.5t-146.5 -37.5q-27 0 -49 4q-18 -44 -18 -57
q0 -31 19 -38.5t102 -7.5q109 0 151 -30t42 -117q0 -159 -222 -159zM288 5l-108 5q-33 -24 -44.5 -42t-11.5 -46q0 -53 29.5 -73.5t112.5 -20.5q76 0 110.5 22t34.5 71q0 54 -25 69t-98 15zM243 230q63 0 89 25t26 84q0 60 -26 85t-89 25q-59 0 -85.5 -25.5t-26.5 -84.5
t26.5 -84t85.5 -25zM113 592l123 140h51l124 -140h-75l-73 87l-75 -87h-75z" />
    <glyph glyph-name="Gbreve" unicode="&#x11e;" horiz-adv-x="616" 
d="M359 285v69h191v-340q-126 -24 -225 -24q-151 0 -209.5 87t-58.5 267q0 183 58.5 270.5t207.5 87.5q47 0 103.5 -6.5t89.5 -13.5l34 -6l-3 -64q-124 21 -215 21q-115 0 -155 -66.5t-40 -222.5q0 -153 40 -219.5t154 -66.5q70 0 143 14v213h-115zM171 918h69
q1 -33 26.5 -54t61.5 -21q37 0 62 21t26 54h70q-3 -59 -46 -95t-112 -36t-111.5 36t-45.5 95z" />
    <glyph glyph-name="gbreve" unicode="&#x11f;" horiz-adv-x="514" 
d="M265 -235q-120 0 -167.5 32.5t-47.5 118.5q0 41 18 66.5t61 57.5q-28 19 -28 69q0 8 8.5 28t16.5 35l9 16q-79 36 -79 151q0 171 187 171q22 0 48 -3t41 -7l15 -3l148 4v-64l-95 2q33 -33 33 -100q0 -94 -46.5 -131.5t-146.5 -37.5q-27 0 -49 4q-18 -44 -18 -57
q0 -31 19 -38.5t102 -7.5q109 0 151 -30t42 -117q0 -159 -222 -159zM288 5l-108 5q-33 -24 -44.5 -42t-11.5 -46q0 -53 29.5 -73.5t112.5 -20.5q76 0 110.5 22t34.5 71q0 54 -25 69t-98 15zM243 230q63 0 89 25t26 84q0 60 -26 85t-89 25q-59 0 -85.5 -25.5t-26.5 -84.5
t26.5 -84t85.5 -25zM113 726h61q2 -38 25 -61t62 -23q40 0 63 23t24 61h62q-3 -60 -43 -100t-106 -40q-65 0 -105 40t-43 100z" />
    <glyph glyph-name="Gdotaccent" unicode="&#x120;" horiz-adv-x="616" 
d="M359 285v69h191v-340q-126 -24 -225 -24q-151 0 -209.5 87t-58.5 267q0 183 58.5 270.5t207.5 87.5q47 0 103.5 -6.5t89.5 -13.5l34 -6l-3 -64q-124 21 -215 21q-115 0 -155 -66.5t-40 -222.5q0 -153 40 -219.5t154 -66.5q70 0 143 14v213h-115zM276 801v87h74v-87h-74z
" />
    <glyph glyph-name="gdotaccent" unicode="&#x121;" horiz-adv-x="514" 
d="M265 -235q-120 0 -167.5 32.5t-47.5 118.5q0 41 18 66.5t61 57.5q-28 19 -28 69q0 8 8.5 28t16.5 35l9 16q-79 36 -79 151q0 171 187 171q22 0 48 -3t41 -7l15 -3l148 4v-64l-95 2q33 -33 33 -100q0 -94 -46.5 -131.5t-146.5 -37.5q-27 0 -49 4q-18 -44 -18 -57
q0 -31 19 -38.5t102 -7.5q109 0 151 -30t42 -117q0 -159 -222 -159zM288 5l-108 5q-33 -24 -44.5 -42t-11.5 -46q0 -53 29.5 -73.5t112.5 -20.5q76 0 110.5 22t34.5 71q0 54 -25 69t-98 15zM243 230q63 0 89 25t26 84q0 60 -26 85t-89 25q-59 0 -85.5 -25.5t-26.5 -84.5
t26.5 -84t85.5 -25zM224 609v87h74v-87h-74z" />
    <glyph glyph-name="Gcommaaccent" unicode="&#x122;" horiz-adv-x="616" 
d="M359 285v69h191v-340q-126 -24 -225 -24q-151 0 -209.5 87t-58.5 267q0 183 58.5 270.5t207.5 87.5q47 0 103.5 -6.5t89.5 -13.5l34 -6l-3 -64q-124 21 -215 21q-115 0 -155 -66.5t-40 -222.5q0 -153 40 -219.5t154 -66.5q70 0 143 14v213h-115zM301 -78l-41 -207h65
l50 207h-74z" />
    <glyph glyph-name="gcommaaccent" unicode="&#x123;" horiz-adv-x="514" 
d="M307 796l-41 -207h-74l50 207h65zM265 -235q-120 0 -167.5 32.5t-47.5 118.5q0 41 18 66.5t61 57.5q-28 19 -28 69q0 8 8.5 28t16.5 35l9 16q-79 36 -79 151q0 171 187 171q22 0 48 -3t41 -7l15 -3l148 4v-64l-95 2q33 -33 33 -100q0 -94 -46.5 -131.5t-146.5 -37.5
q-27 0 -49 4q-18 -44 -18 -57q0 -31 19 -38.5t102 -7.5q109 0 151 -30t42 -117q0 -159 -222 -159zM288 5l-108 5q-33 -24 -44.5 -42t-11.5 -46q0 -53 29.5 -73.5t112.5 -20.5q76 0 110.5 22t34.5 71q0 54 -25 69t-98 15zM243 230q63 0 89 25t26 84q0 60 -26 85t-89 25
q-59 0 -85.5 -25.5t-26.5 -84.5t26.5 -84t85.5 -25z" />
    <glyph glyph-name="Hcircumflex" unicode="&#x124;" horiz-adv-x="675" 
d="M514 0v313h-352v-313h-77v692h77v-310h352v310h76v-692h-76zM172 791l134 135h65l134 -135h-84l-82 80l-83 -80h-84z" />
    <glyph glyph-name="hcircumflex" unicode="&#x125;" horiz-adv-x="537" 
d="M147 0h-75v718h75v-246q80 38 154 38q100 0 134.5 -54t34.5 -192v-264h-75v262q0 104 -20.5 142.5t-86.5 38.5q-32 0 -67 -7.5t-55 -15.5l-19 -7v-413zM118 774l123 140h51l124 -140h-75l-73 87l-75 -87h-75z" />
    <glyph glyph-name="Hbar" unicode="&#x126;" horiz-adv-x="686" 
d="M15 508v65h74v119h77v-119h352v119h76v-119h83v-65h-83v-508h-76v313h-352v-313h-77v508h-74zM166 382h352v126h-352v-126z" />
    <glyph glyph-name="hbar" unicode="&#x127;" horiz-adv-x="537" 
d="M10 580v66h62v72h75v-72h154v-66h-154v-108q80 38 154 38q100 0 134.5 -54t34.5 -192v-264h-75v262q0 104 -20.5 142.5t-86.5 38.5q-32 0 -67 -7.5t-55 -15.5l-19 -7v-413h-75v580h-62z" />
    <glyph glyph-name="Itilde" unicode="&#x128;" horiz-adv-x="246" 
d="M85 0v692h77v-692h-77zM269 915l18 -56q-5 -6 -13.5 -15.5t-30.5 -25t-40 -15.5q-25 0 -87 27t-76 27q-11 0 -29 -12t-31 -24l-13 -12l-17 56q5 6 14.5 16t33 26t41.5 16q27 0 88.5 -27t73.5 -27q9 0 26 11.5t29 23.5z" />
    <glyph glyph-name="itilde" unicode="&#x129;" horiz-adv-x="219" 
d="M72 500v-500h75v500h-75zM252 711l17 -48q-46 -51 -86 -51q-21 0 -72.5 23.5t-66.5 23.5q-11 0 -29 -10t-31 -20l-13 -10l-18 48q50 52 91 52q21 0 73 -23t66 -23q9 0 26.5 9.5t30.5 19.5z" />
    <glyph glyph-name="Imacron" unicode="&#x12a;" horiz-adv-x="246" 
d="M85 0v692h77v-692h-77zM-30 812v58h311v-58h-311z" />
    <glyph glyph-name="imacron" unicode="&#x12b;" horiz-adv-x="219" 
d="M72 500v-500h75v500h-75zM-28 624v59h275v-59h-275z" />
    <glyph glyph-name="Ibreve" unicode="&#x12c;" horiz-adv-x="246" 
d="M85 0v692h77v-692h-77zM-26 918h69q1 -33 26 -54t62 -21t62 21t26 54h70q-3 -59 -46 -95t-112 -36t-111.5 36t-45.5 95z" />
    <glyph glyph-name="ibreve" unicode="&#x12d;" horiz-adv-x="219" 
d="M72 500v-500h75v500h-75zM-39 726h61q2 -38 25 -61t62 -23q40 0 63 23t24 61h62q-3 -60 -43 -100t-106 -40q-65 0 -105 40t-43 100z" />
    <glyph glyph-name="Iogonek" unicode="&#x12e;" horiz-adv-x="246" 
d="M85 0v692h77v-692q-76 -69 -76 -102q0 -19 11.5 -31t29.5 -12l51 6l7 -58q-45 -9 -79 -9q-40 0 -66 23.5t-26 63.5q0 31 24.5 64t49.5 55h-3z" />
    <glyph glyph-name="iogonek" unicode="&#x12f;" horiz-adv-x="219" 
d="M72 0v500h75v-500q-76 -68 -76 -102q0 -19 11.5 -31t29.5 -12l51 6l7 -58q-45 -9 -79 -9q-40 0 -66 23.5t-26 63.5q0 53 77 119h-4zM72 613v87h75v-87h-75z" />
    <glyph glyph-name="Idotaccent" unicode="&#x130;" horiz-adv-x="246" 
d="M85 0v692h77v-692h-77zM86 801v87h74v-87h-74z" />
    <glyph glyph-name="dotlessi" unicode="&#x131;" horiz-adv-x="219" 
d="M72 0v500h75v-500h-75z" />
    <glyph glyph-name="Jcircumflex" unicode="&#x134;" horiz-adv-x="289" 
d="M207 692l1 -597q0 -45 -7.5 -75t-20.5 -48.5t-38.5 -28t-52.5 -12.5t-71 -3v69q72 0 92.5 17.5t20.5 91.5v586h76zM2 788l134 135h65l134 -135h-84l-82 80l-83 -80h-84z" />
    <glyph glyph-name="jcircumflex" unicode="&#x135;" horiz-adv-x="219" 
d="M73 13v487h74v-488q0 -92 -33 -138t-133 -97l-30 58q77 45 99.5 77t22.5 101zM-41 592l123 140h51l124 -140h-75l-73 87l-75 -87h-75z" />
    <glyph glyph-name="Kcommaaccent" unicode="&#x136;" horiz-adv-x="568" 
d="M461 0l-184 306l-115 -4v-302h-77v696h77v-321l113 4l177 317h89l-198 -348l209 -348h-91zM264 -78l-40 -207h65l49 207h-74z" />
    <glyph glyph-name="kcommaaccent" unicode="&#x137;" horiz-adv-x="479" 
d="M100 -285l40 207h75l-50 -207h-65zM147 0h-75v718h75v-424l78 4l143 202h85l-163 -230l170 -270h-85l-149 232l-79 -3v-229z" />
    <glyph glyph-name="Lacute" unicode="&#x139;" horiz-adv-x="479" 
d="M466 0h-381v696h77v-622h304v-74zM134 831l216 100l26 -66l-219 -87z" />
    <glyph glyph-name="lacute" unicode="&#x13a;" horiz-adv-x="231" 
d="M78 0v718h75v-718h-75zM52 846l216 98l26 -64l-221 -85z" />
    <glyph glyph-name="Lcommaaccent" unicode="&#x13b;" horiz-adv-x="479" 
d="M241 -78l-41 -207h65l50 207h-74zM466 0h-381v692h77v-623h304v-69z" />
    <glyph glyph-name="lcommaaccent" unicode="&#x13c;" horiz-adv-x="231" 
d="M78 0v718h75v-718h-75zM74 -78l-41 -207h65l50 207h-74z" />
    <glyph glyph-name="Lcaron" unicode="&#x13d;" horiz-adv-x="494" 
d="M439 696v-234h-73v234h73zM466 0h-381v692h77v-623h304v-69z" />
    <glyph glyph-name="lcaron" unicode="&#x13e;" horiz-adv-x="270" 
d="M255 683l-41 -207h66l49 207h-74zM78 0v718h75v-718h-75z" />
    <glyph glyph-name="Lslash" unicode="&#x141;" horiz-adv-x="483" 
d="M471 0h-381v272l-57 -40l-37 52l94 66v342h77v-288l142 99l37 -51l-179 -126v-257h304v-69z" />
    <glyph glyph-name="lslash" unicode="&#x142;" horiz-adv-x="310" 
d="M114 0v279l-67 -47l-37 52l104 73v361h75v-309l74 52l37 -52l-111 -78v-331h-75z" />
    <glyph glyph-name="Nacute" unicode="&#x143;" horiz-adv-x="676" 
d="M85 0v692h144l265 -624h21v624h76v-692h-141l-269 624h-19v-624h-77zM220 831l216 100l26 -66l-219 -87z" />
    <glyph glyph-name="nacute" unicode="&#x144;" horiz-adv-x="537" 
d="M72 0h75v406q69 37 141 37q67 0 87.5 -38.5t20.5 -142.5v-262h74v264q0 138 -34.5 192t-134.5 54q-33 0 -71.5 -11t-61.5 -23l-22 -11v35h-74v-500zM160 642l216 98l26 -64l-221 -85z" />
    <glyph glyph-name="Ncommaaccent" unicode="&#x145;" horiz-adv-x="676" 
d="M324 -78l-41 -207h65l50 207h-74zM85 0v692h144l265 -624h21v624h76v-692h-141l-269 624h-19v-624h-77z" />
    <glyph glyph-name="ncommaaccent" unicode="&#x146;" horiz-adv-x="537" 
d="M127 -285l41 207h74l-49 -207h-66zM147 0h-75v500h74v-35q81 45 155 45q100 0 134.5 -54t34.5 -192v-264h-74v262q0 104 -20.5 142.5t-87.5 38.5q-32 0 -67.5 -9.5t-54.5 -18.5l-19 -9v-406z" />
    <glyph glyph-name="Ncaron" unicode="&#x147;" horiz-adv-x="676" 
d="M85 0v692h144l265 -624h21v624h76v-692h-141l-269 624h-19v-624h-77zM306 788l-134 135h84l83 -80l82 80h84l-134 -135h-65z" />
    <glyph glyph-name="ncaron" unicode="&#x148;" horiz-adv-x="537" 
d="M147 0h-75v500h74v-35q81 45 155 45q100 0 134.5 -54t34.5 -192v-264h-74v262q0 104 -20.5 142.5t-87.5 38.5q-32 0 -67.5 -9.5t-54.5 -18.5l-19 -9v-406zM242 592l-123 140h74l75 -87l74 87h75l-125 -140h-50z" />
    <glyph glyph-name="Eng" unicode="&#x14a;" horiz-adv-x="676" 
d="M85 0v692h144l265 -624h21v624h76v-117l1 -597q0 -45 -7.5 -75t-20.5 -48.5t-38.5 -28t-52.5 -12.5t-71 -3v69q72 0 92.5 17.5t20.5 91.5v11h-65l-269 624h-19v-624h-77z" />
    <glyph glyph-name="eng" unicode="&#x14b;" horiz-adv-x="538" 
d="M146 0h-74v500h74v-33q87 43 158 43q96 0 131.5 -57.5t35.5 -192.5v-262q0 -93 -31 -138t-130 -97l-32 63q75 43 96.5 74t21.5 96v263q0 100 -20.5 141.5t-83.5 41.5q-29 0 -65.5 -9t-58.5 -19l-22 -9v-405z" />
    <glyph glyph-name="Omacron" unicode="&#x14c;" horiz-adv-x="660" 
d="M330 58q115 0 154.5 65t39.5 220q0 151 -41 221t-153 70q-113 0 -153.5 -69.5t-40.5 -221.5t40 -218.5t154 -66.5zM330 -10q-155 0 -214 85t-59 268q0 182 60 270.5t213 88.5t213.5 -88t60.5 -271q0 -187 -59 -270t-215 -83zM174 812v58h311v-58h-311z" />
    <glyph glyph-name="omacron" unicode="&#x14d;" horiz-adv-x="528" 
d="M264 510q-116 0 -165 -61t-49 -193q0 -142 46 -204t168 -62t168 62t46 204q0 132 -48.5 193t-165.5 61zM264 55q-84 0 -110.5 44t-26.5 157q0 106 29.5 147.5t107.5 41.5q79 0 108 -41.5t29 -147.5q0 -114 -26 -157.5t-111 -43.5zM128 636v59h275v-59h-275z" />
    <glyph glyph-name="Obreve" unicode="&#x14e;" horiz-adv-x="660" 
d="M330 58q115 0 154.5 65t39.5 220q0 151 -41 221t-153 70q-113 0 -153.5 -69.5t-40.5 -221.5t40 -218.5t154 -66.5zM330 -10q-155 0 -214 85t-59 268q0 182 60 270.5t213 88.5t213.5 -88t60.5 -271q0 -187 -59 -270t-215 -83zM174 918h69q1 -33 26 -54t62 -21t62 21t26 54
h70q-3 -59 -46 -95t-112 -36t-111.5 36t-45.5 95z" />
    <glyph glyph-name="obreve" unicode="&#x14f;" horiz-adv-x="528" 
d="M264 510q-116 0 -165 -61t-49 -193q0 -142 46 -204t168 -62t168 62t46 204q0 132 -48.5 193t-165.5 61zM264 55q-84 0 -110.5 44t-26.5 157q0 106 29.5 147.5t107.5 41.5q79 0 108 -41.5t29 -147.5q0 -114 -26 -157.5t-111 -43.5zM118 726h61q2 -38 25 -61t62 -23
q40 0 63 23t24 61h62q-3 -60 -43 -100t-106 -40q-65 0 -105 40t-43 100z" />
    <glyph glyph-name="Ohungarumlaut" unicode="&#x150;" horiz-adv-x="660" 
d="M330 58q115 0 154.5 65t39.5 220q0 151 -41 221t-153 70q-113 0 -153.5 -69.5t-40.5 -221.5t40 -218.5t154 -66.5zM330 -10q-155 0 -214 85t-59 268q0 182 60 270.5t213 88.5t213.5 -88t60.5 -271q0 -187 -59 -270t-215 -83zM348 785l142 131l55 -35l-146 -129zM151 785
l142 132l54 -35l-145 -129z" />
    <glyph glyph-name="ohungarumlaut" unicode="&#x151;" horiz-adv-x="528" 
d="M264 510q-116 0 -165 -61t-49 -193q0 -142 46 -204t168 -62t168 62t46 204q0 132 -48.5 193t-165.5 61zM264 55q-84 0 -110.5 44t-26.5 157q0 106 29.5 147.5t107.5 41.5q79 0 108 -41.5t29 -147.5q0 -114 -26 -157.5t-111 -43.5zM286 624l145 139l54 -43l-148 -138z
M93 624l145 138l54 -42l-147 -138z" />
    <glyph glyph-name="OE" unicode="&#x152;" horiz-adv-x="925" 
d="M878 -1h-413q-92 -9 -143 -9q-153 0 -209 84.5t-56 270.5q0 189 58 275t207 86q79 0 141 -10h415v-74h-339v-229h279v-74h-279v-245h339v-75zM332 65q52 0 131 7v550q-105 9 -133 9q-113 0 -153 -65t-40 -220q0 -154 39 -217.5t156 -63.5z" />
    <glyph glyph-name="oe" unicode="&#x153;" horiz-adv-x="857" 
d="M609 58q33 0 79 2.5t75 4.5l29 2l2 -61q-113 -16 -194 -16q-119 0 -162 91q-22 -48 -63 -69.5t-110 -21.5q-123 0 -169 62t-46 205q0 132 49.5 192.5t165.5 60.5q68 0 110.5 -24.5t65.5 -80.5q45 105 170 105q101 0 151 -56.5t50 -177.5l-4 -58h-330q0 -82 30 -121
t101 -39zM265 57q83 0 109.5 45t26.5 153q0 100 -31.5 143.5t-104.5 43.5q-79 0 -108.5 -40.5t-29.5 -144.5q0 -111 27 -155.5t111 -44.5zM477 279h260q0 89 -29.5 126.5t-96.5 37.5q-134 0 -134 -164z" />
    <glyph glyph-name="Racute" unicode="&#x154;" horiz-adv-x="616" 
d="M162 265h196l125 -265h85l-133 281q127 41 127 201q0 108 -55.5 159t-165.5 51h-256v-692h77v265zM483 482q0 -149 -141 -149h-180v291h179q142 0 142 -142zM187 831l216 100l26 -66l-219 -87z" />
    <glyph glyph-name="racute" unicode="&#x155;" horiz-adv-x="346" 
d="M72 0v500h74v-68q87 60 183 79v-76q-42 -8 -87.5 -25t-69.5 -30l-25 -13v-367h-75zM67 642l216 98l26 -64l-221 -85z" />
    <glyph glyph-name="Rcommaaccent" unicode="&#x156;" horiz-adv-x="616" 
d="M245 -285l41 207h74l-50 -207h-65zM358 265h-196v-265h-77v692h256q110 0 165.5 -51t55.5 -159q0 -160 -127 -201l133 -281h-85zM483 482q0 142 -142 142h-179v-291h180q141 0 141 149z" />
    <glyph glyph-name="rcommaaccent" unicode="&#x157;" horiz-adv-x="346" 
d="M72 -78l-40 -207h65l49 207h-74zM72 0v500h74v-68q87 60 183 79v-76q-42 -8 -87.5 -25t-69.5 -30l-25 -13v-367h-75z" />
    <glyph glyph-name="Rcaron" unicode="&#x158;" horiz-adv-x="616" 
d="M358 265h-196v-265h-77v692h256q110 0 165.5 -51t55.5 -159q0 -160 -127 -201l133 -281h-85zM483 482q0 142 -142 142h-179v-291h180q141 0 141 149zM268 791l-134 135h84l83 -80l82 80h84l-134 -135h-65z" />
    <glyph glyph-name="rcaron" unicode="&#x159;" horiz-adv-x="346" 
d="M72 0v500h74v-68q87 60 183 79v-76q-42 -8 -87.5 -25t-69.5 -30l-25 -13v-367h-75zM149 592l-123 140h74l75 -87l74 87h75l-125 -140h-50z" />
    <glyph glyph-name="Sacute" unicode="&#x15a;" horiz-adv-x="542" 
d="M480 683l-7 -65q-139 17 -197 17q-150 0 -150 -113q0 -63 34.5 -86.5t134.5 -45.5q111 -25 155 -62.5t44 -123.5q0 -213 -221 -213q-36 0 -91 5.5t-92 11.5l-36 5l8 64q136 -18 207 -18q148 0 148 139q0 56 -32.5 80.5t-121.5 41.5q-117 25 -166 64.5t-49 132.5
q0 186 223 186q36 0 88.5 -5t86.5 -10zM163 831l216 100l26 -66l-219 -87z" />
    <glyph glyph-name="sacute" unicode="&#x15b;" horiz-adv-x="465" 
d="M406 491l-2 -64q-111 16 -175 16q-109 0 -109 -76q0 -35 25 -49.5t105 -28.5q98 -17 135 -45t37 -98q0 -84 -49.5 -120t-144.5 -36q-28 0 -72 4.5t-74 9.5l-30 5l4 65q114 -17 165 -17q65 0 95.5 18.5t30.5 67.5q0 38 -26 53.5t-109 28.5q-93 15 -130 42t-37 97
q0 76 51.5 111t128.5 35q33 0 78.5 -5t74.5 -9zM114 642l216 98l26 -64l-221 -85z" />
    <glyph glyph-name="Scircumflex" unicode="&#x15c;" horiz-adv-x="542" 
d="M480 683l-7 -65q-139 17 -197 17q-150 0 -150 -113q0 -63 34.5 -86.5t134.5 -45.5q111 -25 155 -62.5t44 -123.5q0 -213 -221 -213q-36 0 -91 5.5t-92 11.5l-36 5l8 64q136 -18 207 -18q148 0 148 139q0 56 -32.5 80.5t-121.5 41.5q-117 25 -166 64.5t-49 132.5
q0 186 223 186q36 0 88.5 -5t86.5 -10zM108 788l134 135h65l134 -135h-84l-82 80l-83 -80h-84z" />
    <glyph glyph-name="scircumflex" unicode="&#x15d;" horiz-adv-x="465" 
d="M406 491l-2 -64q-111 16 -175 16q-109 0 -109 -76q0 -35 25 -49.5t105 -28.5q98 -17 135 -45t37 -98q0 -84 -49.5 -120t-144.5 -36q-28 0 -72 4.5t-74 9.5l-30 5l4 65q114 -17 165 -17q65 0 95.5 18.5t30.5 67.5q0 38 -26 53.5t-109 28.5q-93 15 -130 42t-37 97
q0 76 51.5 111t128.5 35q33 0 78.5 -5t74.5 -9zM85 592l123 140h51l124 -140h-75l-73 87l-75 -87h-75z" />
    <glyph glyph-name="Scedilla" unicode="&#x15e;" horiz-adv-x="542" 
d="M410 -127q0 -90 -93 -90q-20 0 -41.5 1.5t-33.5 3.5l-11 2l3 48q39 -3 66 -3q44 0 44 38q0 34 -44 34h-42v84q-37 1 -88 6.5t-84 10.5l-32 5l8 64q136 -18 207 -18q148 0 148 139q0 56 -32.5 80.5t-121.5 41.5q-117 25 -166 64.5t-49 132.5q0 186 223 186q36 0 88.5 -5
t86.5 -10l34 -5l-7 -65q-139 17 -197 17q-150 0 -150 -113q0 -63 34.5 -86.5t134.5 -45.5q111 -25 155 -62.5t44 -123.5q0 -199 -195 -212v-41q59 0 85 -16t26 -62z" />
    <glyph glyph-name="scedilla" unicode="&#x15f;" horiz-adv-x="465" 
d="M356 -127q0 -90 -93 -90q-20 0 -41.5 1.5t-33.5 3.5l-11 2l3 48q39 -3 66 -3q44 0 44 38q0 34 -44 34h-42v84q-29 1 -67 5.5t-61 8.5l-24 4l4 65q114 -17 165 -17q65 0 95.5 18.5t30.5 67.5q0 38 -26 53.5t-109 28.5q-93 15 -130 42t-37 97q0 76 51.5 111t128.5 35
q33 0 78.5 -5t74.5 -9l28 -5l-2 -64q-111 16 -175 16q-109 0 -109 -76q0 -35 25 -49.5t105 -28.5q98 -17 135 -45t37 -98q0 -81 -45 -117t-132 -39v-39q59 0 85 -16t26 -62z" />
    <glyph glyph-name="Scaron" unicode="&#x160;" horiz-adv-x="542" 
d="M480 683l-7 -65q-139 17 -197 17q-150 0 -150 -113q0 -63 34.5 -86.5t134.5 -45.5q111 -25 155 -62.5t44 -123.5q0 -213 -221 -213q-36 0 -91 5.5t-92 11.5l-36 5l8 64q136 -18 207 -18q148 0 148 139q0 56 -32.5 80.5t-121.5 41.5q-117 25 -166 64.5t-49 132.5
q0 186 223 186q36 0 88.5 -5t86.5 -10zM250 791l-134 135h84l83 -80l82 80h84l-134 -135h-65z" />
    <glyph glyph-name="scaron" unicode="&#x161;" horiz-adv-x="465" 
d="M406 491l-2 -64q-111 16 -175 16q-109 0 -109 -76q0 -35 25 -49.5t105 -28.5q98 -17 135 -45t37 -98q0 -84 -49.5 -120t-144.5 -36q-28 0 -72 4.5t-74 9.5l-30 5l4 65q114 -17 165 -17q65 0 95.5 18.5t30.5 67.5q0 38 -26 53.5t-109 28.5q-93 15 -130 42t-37 97
q0 76 51.5 111t128.5 35q33 0 78.5 -5t74.5 -9zM216 592l-123 140h74l75 -87l74 87h75l-125 -140h-50z" />
    <glyph glyph-name="Tcedilla" unicode="&#x162;" horiz-adv-x="0" 
 />
    <glyph glyph-name="tcedilla" unicode="&#x163;" horiz-adv-x="351" 
d="M331 435h-159v-239q0 -86 12.5 -113t59.5 -27l89 6l5 -62q-67 -11 -102 -11q-78 0 -108 38t-30 145v263h-71v65h71v153h74v-153h159v-65zM264 -127q0 -90 -93 -90q-20 0 -41.5 1.5t-33.5 3.5l-11 2l3 48q39 -3 66 -3q44 0 44 38q0 34 -44 34h-42v94h41v-50q59 0 85 -16
t26 -62z" />
    <glyph glyph-name="Tcaron" unicode="&#x164;" horiz-adv-x="526" 
d="M13 623v69h500v-69h-211v-623h-76v623h-213zM231 791l-134 135h84l83 -80l82 80h84l-134 -135h-65z" />
    <glyph glyph-name="tcaron" unicode="&#x165;" horiz-adv-x="432" 
d="M331 432h-158v-233q0 -86 12 -112.5t60 -26.5l89 5l4 -65q-66 -11 -101 -11q-79 0 -109 38.5t-30 144.5v260h-71v68h71v153h75v-153h158v-68zM442 696v-234h-72v234h72z" />
    <glyph glyph-name="Tbar" unicode="&#x166;" horiz-adv-x="529" 
d="M15 623v69h500v-69h-211v-257h164v-66h-164v-300h-76v300h-163v66h163v257h-213z" />
    <glyph glyph-name="tbar" unicode="&#x167;" horiz-adv-x="354" 
d="M333 432h-158v-120h134v-59h-134v-54q0 -86 12 -112.5t60 -26.5l89 5l4 -65q-66 -11 -101 -11q-79 0 -109 38.5t-30 144.5v81h-55v59h55v120h-71v68h71v153h75v-153h158v-68z" />
    <glyph glyph-name="Utilde" unicode="&#x168;" horiz-adv-x="644" 
d="M157 208q0 -150 162 -150q84 0 126.5 35.5t42.5 114.5v484h76v-482q0 -116 -61.5 -168t-183.5 -52q-118 0 -178.5 52t-60.5 168v482h77v-484zM472 915l18 -56q-5 -6 -13.5 -15.5t-30.5 -25t-40 -15.5q-25 0 -87 27t-76 27q-11 0 -29 -12t-31 -24l-13 -12l-17 56
q5 6 14.5 16t33 26t41.5 16q28 0 89 -27t73 -27q9 0 26 11.5t30 23.5z" />
    <glyph glyph-name="utilde" unicode="&#x169;" horiz-adv-x="531" 
d="M459 500h-75v-406q-63 -37 -137 -37q-67 0 -86 37t-19 146v260h-75v-261q0 -143 33.5 -196t135.5 -53q32 0 69 11t58 23l21 11v-35h75v500zM404 711l17 -48q-46 -51 -86 -51q-21 0 -72.5 23.5t-66.5 23.5q-11 0 -29 -10t-31 -20l-13 -10l-18 48q50 52 91 52q21 0 73 -23
t66 -23q9 0 26.5 9.5t30.5 19.5z" />
    <glyph glyph-name="Umacron" unicode="&#x16a;" horiz-adv-x="644" 
d="M157 208q0 -150 162 -150q84 0 126.5 35.5t42.5 114.5v484h76v-482q0 -116 -61.5 -168t-183.5 -52q-118 0 -178.5 52t-60.5 168v482h77v-484zM168 812v58h311v-58h-311z" />
    <glyph glyph-name="umacron" unicode="&#x16b;" horiz-adv-x="531" 
d="M459 500h-75v-406q-63 -37 -137 -37q-67 0 -86 37t-19 146v260h-75v-261q0 -143 33.5 -196t135.5 -53q32 0 69 11t58 23l21 11v-35h75v500zM126 624v59h275v-59h-275z" />
    <glyph glyph-name="Ubreve" unicode="&#x16c;" horiz-adv-x="644" 
d="M157 208q0 -150 162 -150q84 0 126.5 35.5t42.5 114.5v484h76v-482q0 -116 -61.5 -168t-183.5 -52q-118 0 -178.5 52t-60.5 168v482h77v-484zM167 918h69q1 -33 26.5 -54t61.5 -21q37 0 62 21t26 54h70q-3 -59 -46 -95t-112 -36t-111.5 36t-45.5 95z" />
    <glyph glyph-name="ubreve" unicode="&#x16d;" horiz-adv-x="531" 
d="M459 500h-75v-406q-63 -37 -137 -37q-67 0 -86 37t-19 146v260h-75v-261q0 -143 33.5 -196t135.5 -53q32 0 69 11t58 23l21 11v-35h75v500zM111 726h61q2 -38 25 -61t62 -23q40 0 63 23t24 61h62q-3 -60 -43 -100t-106 -40q-65 0 -105 40t-43 100z" />
    <glyph glyph-name="Uring" unicode="&#x16e;" horiz-adv-x="644" 
d="M157 208q0 -150 162 -150q84 0 126.5 35.5t42.5 114.5v484h76v-482q0 -116 -61.5 -168t-183.5 -52q-118 0 -178.5 52t-60.5 168v482h77v-484zM442 846q0 -50 -33 -78t-85 -28q-53 0 -86 28t-33 78q0 49 33.5 77t85.5 28t85 -28t33 -77zM262 846q0 -25 16.5 -39.5
t45.5 -14.5t45.5 14.5t16.5 39.5t-16.5 39t-45.5 14q-62 0 -62 -53z" />
    <glyph glyph-name="uring" unicode="&#x16f;" horiz-adv-x="531" 
d="M459 500h-75v-406q-63 -37 -137 -37q-67 0 -86 37t-19 146v260h-75v-261q0 -143 33.5 -196t135.5 -53q32 0 69 11t58 23l21 11v-35h75v500zM161 645q0 44 30 74t74 30q43 0 73 -30t30 -74t-29.5 -74t-73.5 -30t-74 30t-30 74zM210 645q0 -24 16 -40.5t39 -16.5t39 16.5
t16 40.5q0 23 -16 39.5t-39 16.5t-39 -16.5t-16 -39.5z" />
    <glyph glyph-name="Uhungarumlaut" unicode="&#x170;" horiz-adv-x="644" 
d="M157 208q0 -150 162 -150q84 0 126.5 35.5t42.5 114.5v484h76v-482q0 -116 -61.5 -168t-183.5 -52q-118 0 -178.5 52t-60.5 168v482h77v-484zM352 785l142 131l55 -35l-146 -129zM155 785l142 132l54 -35l-145 -129z" />
    <glyph glyph-name="uhungarumlaut" unicode="&#x171;" horiz-adv-x="531" 
d="M459 500h-75v-406q-63 -37 -137 -37q-67 0 -86 37t-19 146v260h-75v-261q0 -143 33.5 -196t135.5 -53q32 0 69 11t58 23l21 11v-35h75v500zM301 624l145 139l54 -43l-148 -138zM108 624l145 138l54 -42l-147 -138z" />
    <glyph glyph-name="Uogonek" unicode="&#x172;" horiz-adv-x="645" 
d="M157 208q0 -150 162 -150q84 0 126.5 35.5t42.5 114.5v484h76v-482q0 -176 -151 -210l-9 -9q-8 -9 -17.5 -20t-19.5 -24.5t-16.5 -26.5t-6.5 -22q0 -19 11.5 -31t29.5 -12l50 6l7 -58q-45 -9 -79 -9q-40 0 -66 23.5t-26 63.5q0 46 63 109h-15q-118 0 -178.5 52t-60.5 168
v482h77v-484z" />
    <glyph glyph-name="uogonek" unicode="&#x173;" horiz-adv-x="531" 
d="M384 500h75v-500q-9 -7 -21.5 -19t-34 -39.5t-21.5 -43.5q0 -19 11.5 -31t29.5 -12l51 6l7 -58q-45 -9 -79 -9q-40 0 -66 23.5t-26 63.5q0 31 25.5 64t52.5 55h-4v32q-78 -42 -148 -42q-102 0 -135.5 53t-33.5 196v261h75v-260q0 -109 19 -146t86 -37q30 0 64 9.5
t53 18.5l20 9v406z" />
    <glyph glyph-name="Wcircumflex" unicode="&#x174;" horiz-adv-x="886" 
d="M30 692h80l118 -624h29l141 618h90l141 -618h29l118 624h79l-140 -692h-141l-131 591l-131 -591h-141zM277 788l134 135h65l134 -135h-84l-82 80l-83 -80h-84z" />
    <glyph glyph-name="wcircumflex" unicode="&#x175;" horiz-adv-x="762" 
d="M31 500h75l101 -435h16l119 425h78l119 -425h17l100 435h75l-119 -500h-125l-106 391l-106 -391h-125zM233 592l123 140h51l124 -140h-75l-73 87l-75 -87h-75z" />
    <glyph glyph-name="Ycircumflex" unicode="&#x176;" horiz-adv-x="538" 
d="M308 291v-291h-77v291l-221 401h87l172 -324l172 324h87zM104 791l134 135h65l134 -135h-84l-82 80l-83 -80h-84z" />
    <glyph glyph-name="ycircumflex" unicode="&#x177;" horiz-adv-x="483" 
d="M25 500h75l125 -435h33l126 435h75l-208 -722h-75l65 222h-74zM95 592l123 140h51l124 -140h-75l-73 87l-75 -87h-75z" />
    <glyph glyph-name="Ydieresis" unicode="&#x178;" horiz-adv-x="538" 
d="M308 291v-291h-77v291l-221 401h87l172 -324l172 324h87zM130 808v90h73v-90h-73zM334 808v90h72v-90h-72z" />
    <glyph glyph-name="Zacute" unicode="&#x179;" horiz-adv-x="536" 
d="M43 624v68h450v-90l-362 -514v-20h362v-69h-450v89l361 514v22h-361zM153 831l216 100l26 -66l-219 -87z" />
    <glyph glyph-name="zacute" unicode="&#x17a;" horiz-adv-x="455" 
d="M42 500v-67h280l-280 -366v-67h371v67h-280l280 366v67h-371zM113 642l216 98l26 -64l-221 -85z" />
    <glyph glyph-name="Zdotaccent" unicode="&#x17b;" horiz-adv-x="536" 
d="M43 624v68h450v-90l-362 -514v-20h362v-69h-450v89l361 514v22h-361zM230 801v87h74v-87h-74z" />
    <glyph glyph-name="zdotaccent" unicode="&#x17c;" horiz-adv-x="455" 
d="M42 500v-67h280l-280 -366v-67h371v67h-280l280 366v67h-371zM190 609v87h74v-87h-74z" />
    <glyph glyph-name="Zcaron" unicode="&#x17d;" horiz-adv-x="536" 
d="M43 624v68h450v-90l-362 -514v-20h362v-69h-450v89l361 514v22h-361zM243 791l-134 135h84l83 -80l82 80h84l-134 -135h-65z" />
    <glyph glyph-name="zcaron" unicode="&#x17e;" horiz-adv-x="455" 
d="M42 433v67h371v-67l-280 -366h280v-67h-371v67l280 366h-280zM205 592l-123 140h74l75 -87l74 87h75l-125 -140h-50z" />
    <glyph glyph-name="florin" unicode="&#x192;" 
d="M281 -55q0 -101 -33.5 -140.5t-110.5 -39.5q-19 0 -43.5 2t-39.5 4l-15 2l1 64q60 -5 91 -5q39 0 57 25.5t18 88.5v420h-63v64h63v54q0 98 27.5 151.5t107.5 53.5q18 0 43 -2.5t41 -4.5l16 -2l-1 -63q-45 4 -85 4q-74 0 -74 -115v-76h145v-64h-145v-421z" />
    <glyph glyph-name="Aringacute" unicode="&#x1fa;" horiz-adv-x="596" 
d="M416 746q0 -45 -29 -74l185 -672h-76l-50 178h-296l-50 -178h-76l184 671q-29 29 -29 75q0 49 33.5 77t85.5 28t85 -28t33 -77zM272 626l-105 -379h262l-105 379h-52zM170 924l216 100l26 -66l-219 -87zM236 746q0 -25 16.5 -39.5t45.5 -14.5t45.5 14.5t16.5 39.5
t-16.5 39t-45.5 14q-62 0 -62 -53z" />
    <glyph glyph-name="aringacute" unicode="&#x1fb;" horiz-adv-x="501" 
d="M425 349v-256q3 -37 58 -44l-3 -59q-79 0 -119 40q-90 -40 -180 -40q-69 0 -105 39t-36 114q0 71 37 105.5t116 42.5l157 15v43q0 51 -22 73t-68 22q-31 0 -78.5 -3t-79.5 -7l-31 -3l-3 57q110 22 196 22q84 0 122.5 -39t38.5 -122zM350 249l-148 -14q-45 -4 -65 -26
t-20 -64q0 -92 76 -92q33 0 72 7.5t62 15.5l23 8v165zM142 645q0 44 30 74t74 30q43 0 73 -30t30 -74t-29.5 -74t-73.5 -30t-74 30t-30 74zM191 645q0 -24 16 -40.5t39 -16.5t39 16.5t16 40.5q0 23 -16 39.5t-39 16.5t-39 -16.5t-16 -39.5zM132 824l216 98l26 -64l-221 -85z
" />
    <glyph glyph-name="AEacute" unicode="&#x1fc;" horiz-adv-x="876" 
d="M408 0v175h-251l-58 -175h-79l224 696h585v-73h-345v-230h285v-73h-285v-247h345v-73h-421zM300 623l-122 -374h230l1 374h-109zM413 831l216 100l26 -66l-219 -87z" />
    <glyph glyph-name="aeacute" unicode="&#x1fd;" horiz-adv-x="804" 
d="M556 58q33 0 79 2.5t75 4.5l29 2l2 -61q-113 -16 -194 -16q-99 0 -147 54l-32 -14q-87 -40 -192 -40q-67 0 -101.5 39.5t-34.5 113.5q0 80 41 110.5t140 40.5l129 12v41q0 91 -87 91q-33 0 -80.5 -2.5t-78.5 -5.5l-31 -2l-3 67q119 15 197 15q102 0 135 -73q48 73 156 73
q101 0 151 -56.5t50 -177.5l-4 -58h-330q0 -82 30 -121t101 -39zM188 55q46 0 105 14.5t74 22.5q-19 51 -19 153l-146 -12q-44 -4 -64.5 -25t-20.5 -63q0 -90 71 -90zM425 279h259q0 89 -29.5 126.5t-96.5 37.5q-66 0 -99.5 -39t-33.5 -125zM290 642l216 98l26 -64l-221 -85
z" />
    <glyph glyph-name="Oslashacute" unicode="&#x1fe;" horiz-adv-x="662" 
d="M331 -10q-69 0 -120 17l-57 -123l-57 26l59 126q-53 40 -75.5 115t-22.5 192q0 182 60 270.5t213 88.5q75 0 126 -21l56 118l58 -24l-59 -127q93 -78 93 -305q0 -187 -59 -270t-215 -83zM137 343q0 -177 52 -235l238 507q-38 19 -96 19q-113 0 -153.5 -69.5t-40.5 -221.5
zM331 58q115 0 154.5 65t39.5 220q0 167 -48 231l-235 -502q34 -14 89 -14zM209 831l216 100l26 -66l-219 -87z" />
    <glyph glyph-name="oslashacute" unicode="&#x1ff;" horiz-adv-x="528" 
d="M264 510q-116 0 -165 -61t-49 -193q0 -98 20 -156t69 -85l-44 -109l50 -18l43 110q35 -8 76 -8q122 0 168 62t46 204q0 177 -90 227l43 104l-50 19l-43 -104q-35 8 -74 8zM264 445q29 0 50 -6l-145 -359q-25 21 -33.5 62t-8.5 114q0 106 29.5 147.5t107.5 41.5zM264 55
q-33 0 -51 5l146 357q42 -38 42 -161q0 -114 -26 -157.5t-111 -43.5zM144 642l216 98l26 -64l-221 -85z" />
    <glyph glyph-name="Scommaaccent" unicode="&#x218;" horiz-adv-x="542" 
d="M249 -78l-40 -207h65l49 207h-74zM480 683l-7 -65q-139 17 -197 17q-150 0 -150 -113q0 -63 34.5 -86.5t134.5 -45.5q111 -25 155 -62.5t44 -123.5q0 -213 -221 -213q-36 0 -91 5.5t-92 11.5l-36 5l8 64q136 -18 207 -18q148 0 148 139q0 56 -32.5 80.5t-121.5 41.5
q-117 25 -166 64.5t-49 132.5q0 186 223 186q36 0 88.5 -5t86.5 -10z" />
    <glyph glyph-name="scommaaccent" unicode="&#x219;" horiz-adv-x="465" 
d="M151 -78l-40 -207h65l50 207h-75zM406 491l-2 -64q-111 16 -175 16q-109 0 -109 -76q0 -35 25 -49.5t105 -28.5q98 -17 135 -45t37 -98q0 -84 -49.5 -120t-144.5 -36q-28 0 -72 4.5t-74 9.5l-30 5l4 65q114 -17 165 -17q65 0 95.5 18.5t30.5 67.5q0 38 -26 53.5
t-109 28.5q-93 15 -130 42t-37 97q0 76 51.5 111t128.5 35q33 0 78.5 -5t74.5 -9z" />
    <glyph glyph-name="Tcommaaccent" unicode="&#x21a;" horiz-adv-x="526" 
d="M246 -78l-40 -207h65l50 207h-75zM13 623v69h500v-69h-211v-623h-76v623h-213z" />
    <glyph glyph-name="tcommaaccent" unicode="&#x21b;" horiz-adv-x="351" 
d="M141 -78l-40 -207h65l50 207h-75zM331 435h-159v-239q0 -86 12.5 -113t59.5 -27l89 6l5 -62q-67 -11 -102 -11q-78 0 -108 38t-30 145v263h-71v65h71v153h74v-153h159v-65z" />
    <glyph glyph-name="circumflex" unicode="&#x2c6;" horiz-adv-x="236" 
d="M-19 592l123 140h51l124 -140h-75l-73 87l-75 -87h-75z" />
    <glyph glyph-name="caron" unicode="&#x2c7;" horiz-adv-x="236" 
d="M106 592l-123 140h74l75 -87l74 87h75l-125 -140h-50z" />
    <glyph glyph-name="breve" unicode="&#x2d8;" horiz-adv-x="236" 
d="M-17 726h61q2 -38 25 -61t62 -23q40 0 63 23t24 61h62q-3 -60 -43 -100t-106 -40q-65 0 -105 40t-43 100z" />
    <glyph glyph-name="dotaccent" unicode="&#x2d9;" horiz-adv-x="236" 
d="M81 609v87h74v-87h-74z" />
    <glyph glyph-name="ring" unicode="&#x2da;" horiz-adv-x="236" 
d="M18 645q0 44 30 74t74 30q43 0 73 -30t30 -74t-29.5 -74t-73.5 -30t-74 30t-30 74zM67 645q0 -24 16 -40.5t39 -16.5t39 16.5t16 40.5q0 23 -16 39.5t-39 16.5t-39 -16.5t-16 -39.5z" />
    <glyph glyph-name="ogonek" unicode="&#x2db;" horiz-adv-x="450" 
d="M332 1q-71 -70 -71 -103q0 -19 11.5 -31t29.5 -12l50 6l7 -58q-45 -9 -79 -9q-40 0 -66 23.5t-26 63.5q0 26 21 58t41 51l21 18z" />
    <glyph glyph-name="tilde" unicode="&#x2dc;" horiz-adv-x="236" 
d="M269 711l17 -48q-46 -51 -86 -51q-21 0 -72.5 23.5t-66.5 23.5q-11 0 -29 -10t-31 -20l-13 -10l-18 48q50 52 91 52q21 0 73 -23t66 -23q9 0 26.5 9.5t29.5 19.5z" />
    <glyph glyph-name="hungarumlaut" unicode="&#x2dd;" horiz-adv-x="236" 
d="M142 624l145 139l54 -43l-148 -138zM-51 624l145 138l54 -42l-147 -138z" />
    <glyph glyph-name="pi" unicode="&#x3c0;" 
d="M359 154v281h-156l-28 -435h-76l31 435q-29 0 -56 -3.5t-40 -6.5l-12 -3v63q59 15 142 15h235q32 0 65 3.5t50 6.5l16 4v-63q-28 -12 -96 -14v-283q0 -56 17 -74.5t70 -18.5v-65q-99 0 -130.5 31t-31.5 127z" />
    <glyph glyph-name="Wgrave" unicode="&#x1e80;" horiz-adv-x="886" 
d="M30 692h80l118 -624h29l141 618h90l141 -618h29l118 624h79l-140 -692h-141l-131 591l-131 -591h-141zM346 931l216 -100l-23 -53l-219 87z" />
    <glyph glyph-name="wgrave" unicode="&#x1e81;" horiz-adv-x="762" 
d="M31 500h75l101 -435h16l119 425h78l119 -425h17l100 435h75l-119 -500h-125l-106 391l-106 -391h-125zM265 740l216 -98l-21 -51l-221 85z" />
    <glyph glyph-name="Wacute" unicode="&#x1e82;" horiz-adv-x="886" 
d="M30 692h80l118 -624h29l141 618h90l141 -618h29l118 624h79l-140 -692h-141l-131 591l-131 -591h-141zM332 831l216 100l26 -66l-219 -87z" />
    <glyph glyph-name="wacute" unicode="&#x1e83;" horiz-adv-x="762" 
d="M31 500h75l101 -435h16l119 425h78l119 -425h17l100 435h75l-119 -500h-125l-106 391l-106 -391h-125zM277 642l216 98l26 -64l-221 -85z" />
    <glyph glyph-name="Wdieresis" unicode="&#x1e84;" horiz-adv-x="886" 
d="M30 692h80l118 -624h29l141 618h90l141 -618h29l118 624h79l-140 -692h-141l-131 591l-131 -591h-141zM304 808v90h73v-90h-73zM508 808v90h72v-90h-72z" />
    <glyph glyph-name="wdieresis" unicode="&#x1e85;" horiz-adv-x="762" 
d="M31 500h75l101 -435h16l119 425h78l119 -425h17l100 435h75l-119 -500h-125l-106 391l-106 -391h-125zM246 621v90h72v-90h-72zM446 621v90h73v-90h-73z" />
    <glyph glyph-name="uni1EAB" unicode="&#x1eab;" horiz-adv-x="501" 
d="M425 349v-256q3 -37 58 -44l-3 -59q-79 0 -119 40q-90 -40 -180 -40q-69 0 -105 39t-36 114q0 71 37 105.5t116 42.5l157 15v43q0 51 -22 73t-68 22q-31 0 -78.5 -3t-79.5 -7l-31 -3l-3 57q110 22 196 22q84 0 122.5 -39t38.5 -122zM350 249l-148 -14q-45 -4 -65 -26
t-20 -64q0 -92 76 -92q33 0 72 7.5t62 15.5l23 8v165zM87 562l123 140h51l124 -140h-75l-73 87l-75 -87h-75zM368 835l17 -48q-46 -51 -86 -51q-21 0 -72.5 23.5t-66.5 23.5q-11 0 -29 -10t-31 -20l-13 -10l-18 48q50 52 91 52q21 0 73 -23t66 -23q9 0 26.5 9.5t30.5 19.5z
" />
    <glyph glyph-name="uni1EB0" unicode="&#x1eb0;" horiz-adv-x="594" 
d="M24 0l190 696h168l188 -695h-77l-52 174h-290l-51 -175h-76zM272 625l-103 -376h255l-102 376h-50zM139 884h69q1 -33 26.5 -54t61.5 -21q37 0 62 21t26 54h70q-3 -59 -46 -95t-112 -36t-111.5 36t-45.5 95zM146 1082l216 -98l-21 -51l-221 85z" />
    <glyph glyph-name="uni1EC5" unicode="&#x1ec5;" horiz-adv-x="506" 
d="M257 58q33 0 79 2.5t76 4.5l29 2l2 -61q-114 -16 -195 -16q-108 0 -153 62.5t-45 194.5q0 263 209 263q101 0 151 -56.5t50 -177.5l-4 -58h-330q0 -82 30 -121t101 -39zM125 279h260q0 89 -29.5 126.5t-96.5 37.5q-133 0 -134 -164zM108 562l123 140h51l124 -140h-75
l-73 87l-75 -87h-75zM392 835l17 -48q-46 -51 -86 -51q-21 0 -72.5 23.5t-66.5 23.5q-11 0 -29 -10t-31 -20l-13 -10l-18 48q50 52 91 52q21 0 73 -23t66 -23q9 0 26.5 9.5t30.5 19.5z" />
    <glyph glyph-name="uni1ED7" unicode="&#x1ed7;" horiz-adv-x="528" 
d="M264 510q-116 0 -165 -61t-49 -193q0 -142 46 -204t168 -62t168 62t46 204q0 132 -48.5 193t-165.5 61zM264 55q-84 0 -110.5 44t-26.5 157q0 106 29.5 147.5t107.5 41.5q79 0 108 -41.5t29 -147.5q0 -114 -26 -157.5t-111 -43.5zM110 562l123 140h51l124 -140h-75
l-73 87l-75 -87h-75zM387 835l17 -48q-46 -51 -86 -51q-21 0 -72.5 23.5t-66.5 23.5q-11 0 -29 -10t-31 -20l-13 -10l-18 48q50 52 91 52q21 0 73 -23t66 -23q9 0 26.5 9.5t29.5 19.5z" />
    <glyph glyph-name="Ygrave" unicode="&#x1ef2;" horiz-adv-x="538" 
d="M308 291v-291h-77v291l-221 401h87l172 -324l172 324h87zM166 931l216 -100l-23 -53l-219 87z" />
    <glyph glyph-name="ygrave" unicode="&#x1ef3;" horiz-adv-x="483" 
d="M25 500h75l125 -435h33l126 435h75l-208 -722h-75l65 222h-74zM130 740l216 -98l-21 -51l-221 85z" />
    <glyph glyph-name="uni1EF8" unicode="&#x1ef8;" horiz-adv-x="531" 
d="M305 298v-298h-77v299l-220 397h86l172 -312l170 312h87zM402 907l17 -48q-46 -51 -86 -51q-21 0 -72.5 23.5t-66.5 23.5q-11 0 -29 -10t-31 -20l-13 -10l-18 48q50 52 91 52q21 0 73 -23t66 -23q9 0 26.5 9.5t30.5 19.5z" />
    <glyph glyph-name="uni1EF9" unicode="&#x1ef9;" horiz-adv-x="483" 
d="M25 500h75l125 -428h33l126 428h75l-208 -722h-75l64 222h-73zM377 711l17 -48q-46 -51 -86 -51q-21 0 -72.5 23.5t-66.5 23.5q-11 0 -29 -10t-31 -20l-13 -10l-18 48q50 52 91 52q21 0 73 -23t66 -23q9 0 26.5 9.5t29.5 19.5z" />
    <glyph glyph-name="endash" unicode="&#x2013;" horiz-adv-x="631" 
d="M66 301h500v-66h-500v66z" />
    <glyph glyph-name="emdash" unicode="&#x2014;" horiz-adv-x="1131" 
d="M66 301h1000v-66h-1000v66z" />
    <glyph glyph-name="quoteleft" unicode="&#x2018;" horiz-adv-x="219" 
d="M174 708l-44 -219h-79l64 219h59z" />
    <glyph glyph-name="quoteright" unicode="&#x2019;" horiz-adv-x="216" 
d="M53 489l44 219h79l-64 -219h-59z" />
    <glyph glyph-name="quotesinglbase" unicode="&#x201a;" horiz-adv-x="218" 
d="M93 22l-9 -43h-16l13 43h12z" />
    <glyph glyph-name="quotedblleft" unicode="&#x201c;" horiz-adv-x="373" 
d="M327 708l-44 -219h-79l64 219h59zM174 708l-44 -219h-79l64 219h59z" />
    <glyph glyph-name="quotedblright" unicode="&#x201d;" horiz-adv-x="377" 
d="M53 490l44 219h79l-64 -219h-59zM213 490l44 219h79l-64 -219h-59z" />
    <glyph glyph-name="quotedblbase" unicode="&#x201e;" horiz-adv-x="359" 
d="M145 112l-44 -219h-79l64 219h59zM297 112l-44 -219h-79l64 219h59z" />
    <glyph glyph-name="dagger" unicode="&#x2020;" horiz-adv-x="478" 
d="M34 434v66h168v192h74v-192h168v-66h-168l-4 -510h-66l-4 510h-168z" />
    <glyph glyph-name="daggerdbl" unicode="&#x2021;" horiz-adv-x="521" 
d="M223 -76v192h-168v65h168v253h-168v66h168v192h75v-192h167v-66h-167v-253h168v-65h-168v-192h-75z" />
    <glyph glyph-name="bullet" unicode="&#x2022;" horiz-adv-x="473" 
d="M111 106v286h250v-286h-250z" />
    <glyph glyph-name="ellipsis" unicode="&#x2026;" horiz-adv-x="725" 
d="M67 0v114h82v-114h-82zM322 0v114h81v-114h-81zM576 0v114h82v-114h-82z" />
    <glyph glyph-name="perthousand" unicode="&#x2030;" horiz-adv-x="835" 
d="M148 619q27 0 38 -20.5t11 -66.5t-11 -68t-38 -22q-50 0 -50 90q0 45 11.5 66t38.5 21zM165 -4l205 685l48 -16l-206 -683zM38 532q0 -141 110 -141q52 0 81 35t29 106q0 138 -110 138t-110 -138zM322 132q0 137 110 137t110 -138q0 -70 -29 -105.5t-81 -35.5t-81 35.5
t-29 106.5zM382 132q0 -91 50 -91t50 90q0 45 -11.5 66t-38.5 21t-38.5 -20.5t-11.5 -65.5zM580 132q0 137 110 137q109 0 109 -138q0 -70 -29 -105.5t-80 -35.5q-52 0 -81 35.5t-29 106.5zM640 132q0 -91 50 -91q27 0 38 22t11 68t-11 66.5t-38 20.5t-38.5 -20.5
t-11.5 -65.5z" />
    <glyph glyph-name="guilsinglleft" unicode="&#x2039;" horiz-adv-x="301" 
d="M234 344l-124 -94l124 -105v-78l-189 151v60l189 143v-77z" />
    <glyph glyph-name="guilsinglright" unicode="&#x203a;" horiz-adv-x="301" 
d="M191 254l-124 94v77l189 -143v-60l-189 -151v78z" />
    <glyph glyph-name="fraction" unicode="&#x2044;" horiz-adv-x="0" 
d="M-224 28l392 632l40 -26l-393 -631z" />
    <glyph glyph-name="zerosuperior" unicode="&#x2070;" horiz-adv-x="280" 
d="M139 800q60 0 89.5 -38t29.5 -128q0 -91 -29.5 -128.5t-88.5 -37.5t-89 38t-30 128t30 128t88 38zM139 742q-27 0 -40 -24.5t-13 -83.5q0 -61 13.5 -84.5t40.5 -23.5t40 23.5t13 84.5q0 59 -12.5 83.5t-41.5 24.5z" />
    <glyph glyph-name="foursuperior" unicode="&#x2074;" horiz-adv-x="280" 
d="M165 478v48h-141v54l69 210h70l-73 -206h75l5 89h58v-89h27v-58h-27v-48h-63z" />
    <glyph glyph-name="fivesuperior" unicode="&#x2075;" horiz-adv-x="280" 
d="M54 790h187v-56h-136l-5 -73q30 15 58 15q93 0 93 -98q0 -108 -106 -108q-21 0 -47.5 3t-43.5 7l-16 3l5 52q55 -9 96 -9q47 0 47 50q0 45 -40 45q-12 0 -25 -3.5t-20 -7.5l-7 -4l-50 6z" />
    <glyph glyph-name="sixsuperior" unicode="&#x2076;" horiz-adv-x="280" 
d="M242 790l-4 -54q-50 7 -84 7q-60 0 -61 -74l9 3q9 3 24.5 7t26.5 4q102 0 102 -103q0 -52 -29.5 -82t-80.5 -30q-116 0 -116 161q0 89 29.5 130t93.5 41q16 0 38.5 -2.5t37.5 -5.5zM145 629q-12 0 -25 -4t-20 -8t-7 -5q3 -87 50 -87q48 0 48 54q0 27 -11 38.5t-35 11.5z
" />
    <glyph glyph-name="sevensuperior" unicode="&#x2077;" horiz-adv-x="280" 
d="M30 728v62h206v-77l-105 -244l-69 13l102 225v21h-134z" />
    <glyph glyph-name="eightsuperior" unicode="&#x2078;" horiz-adv-x="280" 
d="M140 800q113 0 113 -85q0 -60 -43 -73q48 -14 48 -75q0 -99 -118 -99t-118 95q0 59 48 80q-43 16 -43 72q0 85 113 85zM140 522q53 0 53 45q0 37 -39 49h-28q-39 -12 -39 -51q0 -43 53 -43zM140 746q-50 0 -50 -37q0 -31 36 -44h28q36 12 36 43q0 38 -50 38z" />
    <glyph glyph-name="ninesuperior" unicode="&#x2079;" horiz-adv-x="280" 
d="M38 480l4 53q45 -7 82 -7q62 0 64 72l-9 -2q-9 -3 -24.5 -6.5t-27.5 -3.5q-49 0 -75 27t-26 77q0 52 30 81t80 29q118 0 118 -167q0 -85 -29.5 -125t-94.5 -40q-18 0 -41 3t-37 6zM136 638q10 0 23.5 3.5t22.5 6.5l8 4q-1 91 -52 91q-48 0 -48 -52q0 -23 12.5 -38
t33.5 -15z" />
    <glyph glyph-name="zeroinferior" unicode="&#x2080;" horiz-adv-x="280" 
d="M139 222q60 0 89.5 -38t29.5 -128q0 -91 -29.5 -128.5t-88.5 -37.5t-89 38t-30 128t30 128t88 38zM139 164q-27 0 -40 -24.5t-13 -83.5q0 -61 13.5 -84.5t40.5 -23.5t40 23.5t13 84.5q0 59 -12.5 83.5t-41.5 24.5z" />
    <glyph glyph-name="oneinferior" unicode="&#x2081;" horiz-adv-x="280" 
d="M46 142l101 70h60v-312h-64v242l-68 -47z" />
    <glyph glyph-name="twoinferior" unicode="&#x2082;" horiz-adv-x="280" 
d="M248 -100h-209v55l88 87q51 49 51 83q0 37 -49 37l-85 -9l-2 57q59 12 103 12q51 0 75 -22t24 -69q0 -33 -14 -57.5t-47 -54.5l-63 -61h128v-58z" />
    <glyph glyph-name="threeinferior" unicode="&#x2083;" horiz-adv-x="280" 
d="M34 212q59 10 102 10q105 0 105 -84q0 -51 -39 -73q24 -8 35.5 -24.5t11.5 -53.5q0 -97 -106 -97q-22 0 -50 2.5t-45 5.5l-18 2l4 56q57 -8 100 -8q50 0 50 42q0 43 -47 43h-65v53h65q14 0 26 13t12 31q0 34 -45 34l-92 -7z" />
    <glyph glyph-name="fourinferior" unicode="&#x2084;" horiz-adv-x="280" 
d="M172 -100v48h-141v54l69 210h70l-73 -206h75l5 89h58v-89h27v-58h-27v-48h-63z" />
    <glyph glyph-name="fiveinferior" unicode="&#x2085;" horiz-adv-x="280" 
d="M46 212h187v-56h-136l-5 -73q30 15 58 15q93 0 93 -98q0 -108 -106 -108q-21 0 -47.5 3t-43.5 7l-16 3l5 52q55 -9 96 -9q47 0 47 50q0 45 -40 45q-12 0 -25 -3.5t-20 -7.5l-7 -4l-50 6z" />
    <glyph glyph-name="sixinferior" unicode="&#x2086;" horiz-adv-x="280" 
d="M239 212l-4 -54q-50 7 -84 7q-60 0 -61 -74l9 3q9 3 24.5 7t26.5 4q102 0 102 -103q0 -52 -29.5 -82t-80.5 -30q-116 0 -116 161q0 89 29.5 130t93.5 41q16 0 38.5 -2.5t36.5 -5.5zM142 51q-12 0 -25 -4t-20 -8t-7 -5q3 -87 50 -87q48 0 48 54q0 27 -11 38.5t-35 11.5z
" />
    <glyph glyph-name="seveninferior" unicode="&#x2087;" horiz-adv-x="280" 
d="M38 150v62h206v-77l-105 -244l-69 13l102 225v21h-134z" />
    <glyph glyph-name="eightinferior" unicode="&#x2088;" horiz-adv-x="280" 
d="M139 222q113 0 113 -85q0 -60 -43 -73q48 -14 48 -75q0 -99 -118 -99t-118 95q0 59 48 80q-43 16 -43 72q0 85 113 85zM139 -56q53 0 53 45q0 37 -39 49h-28q-39 -12 -39 -51q0 -43 53 -43zM139 168q-50 0 -50 -37q0 -31 36 -44h28q36 12 36 43q0 38 -50 38z" />
    <glyph glyph-name="nineinferior" unicode="&#x2089;" horiz-adv-x="280" 
d="M36 -98l4 53q45 -7 82 -7q62 0 64 72l-9 -2q-9 -3 -24.5 -6.5t-27.5 -3.5q-49 0 -75 27t-26 77q0 52 30 81t80 29q118 0 118 -167q0 -85 -29.5 -125t-94.5 -40q-18 0 -41 3t-37 6zM134 60q10 0 23.5 3.5t22.5 6.5l8 4q-1 91 -52 91q-48 0 -48 -52q0 -23 12.5 -38
t33.5 -15z" />
    <glyph glyph-name="Euro" unicode="&#x20ac;" 
d="M30 378v61h64q12 119 65.5 175t171.5 56q84 0 182 -21l-3 -62q-91 17 -171 17q-84 0 -121.5 -39t-46.5 -126h286v-61h-290q-1 -16 -1 -50v-45h291v-61h-287q9 -87 46.5 -126.5t123.5 -39.5q80 0 170 18l3 -63q-99 -21 -182 -21q-118 0 -171.5 57t-66.5 175h-63v61h60
q-1 14 -1 45q0 34 1 50h-60z" />
    <glyph glyph-name="trademark" unicode="&#x2122;" horiz-adv-x="677" 
d="M91 580v50h200v-50h-66v-248h-55v248h-79zM322 331v299h72l66 -208l71 208h70v-299h-52v224l-66 -209h-43l-66 209v-224h-52z" />
    <glyph glyph-name="Omega" unicode="&#x2126;" 
d="M45 57h123q-4 7 -11.5 19.5t-26.5 50.5t-33 74.5t-26 85t-12 89.5q0 154 48 224.5t173 70.5t173 -70.5t48 -224.5q0 -65 -27.5 -144.5t-55.5 -127.5l-27 -47h124v-66h-197v57q12 22 29 57t46 117.5t29 133.5q0 135 -27.5 190.5t-114.5 55.5q-88 0 -115 -55t-27 -191
q0 -51 26 -128t52 -128l26 -52v-57h-197v66z" />
    <glyph glyph-name="partialdiff" unicode="&#x2202;" 
d="M95 617l-4 61q10 6 26.5 14t62.5 22t86 14q121 0 177.5 -87t56.5 -280q0 -189 -55 -279.5t-176 -90.5q-107 0 -165 57.5t-58 166.5q0 100 56 157.5t154 57.5q36 0 77 -7.5t64 -14.5l23 -8q-4 141 -41 201.5t-126 60.5q-32 0 -71.5 -11t-63.5 -23zM264 364q-67 0 -103 -41
t-36 -108q0 -77 36.5 -117.5t107.5 -40.5q79 0 115 67.5t37 209.5q-80 30 -157 30z" />
    <glyph glyph-name="Delta" unicode="&#x2206;" 
d="M53 57l159 603h135l159 -604v-56h-453v57zM292 595h-26l-136 -529h298z" />
    <glyph glyph-name="product" unicode="&#x220f;" 
d="M382 -163v849h-206v-849h-76v849h-70v68h500v-68h-71v-849h-77z" />
    <glyph glyph-name="summation" unicode="&#x2211;" 
d="M311 308l-267 346v99h470v-68h-390v-22l257 -329v-55l-257 -348v-25h390v-69h-470v101z" />
    <glyph glyph-name="minus" unicode="&#x2212;" 
d="M66 217v68h428v-68h-428z" />
    <glyph glyph-name="radical" unicode="&#x221a;" 
d="M4 378v68h122l128 -517h10l227 848h76l-248 -913h-122l-134 514h-59z" />
    <glyph glyph-name="infinity" unicode="&#x221e;" 
d="M155 121q-125 0 -125 171q0 83 31 127t92 44q45 0 74.5 -26t52.5 -80q23 54 52 80t75 26q61 0 92 -44t31 -127q0 -171 -125 -171q-44 0 -73 25.5t-52 78.5q-23 -59 -50 -81.5t-75 -22.5zM253 292q-2 5 -9 21t-10 22t-10 18.5t-12 18t-13 12.5t-17 9.5t-20 2.5
q-60 0 -60 -104t60 -104q34 0 49.5 20t37.5 74q1 2 1.5 3.5l1 3t1.5 3.5zM307 292q2 -5 9 -21t10 -22t10 -18.5t12 -18t13 -12.5t17 -9.5t20 -2.5q60 0 60 104t-60 104q-11 0 -20 -2.5t-17 -9.5t-13 -12.5t-12 -18t-10 -18.5t-10 -22t-9 -21z" />
    <glyph glyph-name="integral" unicode="&#x222b;" 
d="M316 -6q0 -100 -33.5 -140.5t-102.5 -40.5l-88 8l3 64q39 -4 69 -4q42 0 59 25t17 89v581q0 113 32.5 158.5t103.5 45.5q19 0 42 -2t36 -4l14 -3l-3 -64q-38 5 -74 5q-39 0 -57 -30.5t-18 -106.5v-581z" />
    <glyph glyph-name="approxequal" unicode="&#x2248;" 
d="M485 385l10 -61q-7 -6 -18 -15t-41 -24t-54 -15q-30 0 -106 31t-96 31q-18 0 -44 -12t-43 -24l-17 -11l-12 62q63 53 117 53q30 0 105 -30.5t97 -30.5q16 0 41.5 11.5t43.5 23.5zM485 200l10 -61q-7 -6 -18 -15t-41 -24t-54 -15q-30 0 -106 31t-96 31q-18 0 -44 -11.5
t-43 -23.5l-17 -12l-12 62q63 53 117 53q30 0 105 -30.5t97 -30.5q16 0 41.5 11.5t43.5 22.5z" />
    <glyph glyph-name="notequal" unicode="&#x2260;" 
d="M64 309v69h240l68 155l60 -24l-58 -131h122v-69h-152l-50 -116h202v-69h-232l-66 -152l-61 24l56 128h-129v69h159l51 116h-210z" />
    <glyph glyph-name="lessequal" unicode="&#x2264;" 
d="M488 422l-335 -102l335 -110v-76l-423 150v68l423 145v-75zM65 22v68h423v-68h-423z" />
    <glyph glyph-name="greaterequal" unicode="&#x2265;" 
d="M406 320l-335 102v75l423 -145v-68l-423 -150v76zM494 90v-68h-423v68h423z" />
    <glyph glyph-name="lozenge" unicode="&#x25ca;" 
d="M428 329l-100 67h10l168 -67l-168 -65h-9zM54 329l168 67h9l-99 -67l98 -65h-8zM291 239h-23l-38 25h99zM231 396l37 25h23l37 -25h-97z" />
    <glyph glyph-name="dotlessj" unicode="&#xf6be;" horiz-adv-x="219" 
d="M73 13v487h74v-488q0 -92 -33 -138t-133 -97l-30 58q77 45 99.5 77t22.5 101z" />
    <glyph glyph-name="commaaccent" unicode="&#xf6c3;" horiz-adv-x="170" 
d="M23 -285l41 207h74l-50 -207h-65z" />
    <glyph glyph-name="CR" horiz-adv-x="235" 
 />
    <glyph glyph-name="DLE" horiz-adv-x="0" 
 />
    <glyph glyph-name="zero.pnum" horiz-adv-x="532" 
d="M265 509q106 0 159.5 -59t53.5 -208q0 -139 -54.5 -195t-157.5 -56q-101 0 -157 56.5t-56 195.5q0 144 55 205t157 61zM266 444q-70 0 -106 -42.5t-36 -157.5q0 -106 36 -147t106 -41q72 0 106.5 40t34.5 146q0 81 -17.5 126t-46.5 60.5t-77 15.5z" />
    <glyph glyph-name="one.pnum" horiz-adv-x="354" 
d="M26 386l189 114h63v-500h-71v419l-152 -90z" />
    <glyph glyph-name="two.pnum" horiz-adv-x="473" 
d="M423 0h-371v63l172 141q62 49 87 82t25 72q0 47 -28 65.5t-94 18.5q-21 0 -60 -4.5t-68 -8.5t-29 -5l-5 64q107 21 181 21q178 0 178 -143q0 -58 -26.5 -96t-85.5 -84l-150 -121h274v-65z" />
    <glyph glyph-name="three.pnum" horiz-adv-x="483" 
d="M57 492q104 18 180 18q88 0 133.5 -29t45.5 -96q0 -16 -3 -29.5t-8 -24t-12.5 -20t-13.5 -15.5t-14.5 -11.5t-13.5 -8t-11.5 -6t-7.5 -3.5q44 -14 71.5 -42t27.5 -84q0 -75 -50 -112.5t-137 -37.5q-37 0 -85.5 5t-78.5 10l-30 5l9 64q104 -15 185 -15q116 1 116 85
q0 46 -31 63.5t-83 20.5h-126v63h125q42 2 71 20.5t29 58.5t-26.5 56t-80.5 16q-36 0 -79.5 -3.5t-68.5 -7.5l-26 -4z" />
    <glyph glyph-name="four.pnum" horiz-adv-x="473" 
d="M314 -20v113h-278v55l156 352h74l-152 -339h200v133h71v-133h53v-68h-53v-113h-71z" />
    <glyph glyph-name="five.pnum" horiz-adv-x="490" 
d="M79 502h344v-72h-279l-14 -144q68 31 130 31q183 0 183 -153q0 -83 -49.5 -128t-138.5 -45q-36 0 -86 6t-83 12l-32 6l9 64q119 -20 190 -20q113 0 113 101q0 91 -113 91q-26 0 -60.5 -8.5t-56.5 -17.5l-21 -9l-54 12z" />
    <glyph glyph-name="six.pnum" horiz-adv-x="493" 
d="M420 494l-5 -60q-88 12 -152 12q-67 0 -103.5 -38t-36.5 -128q80 37 146 37q179 0 179 -160q0 -80 -53 -123.5t-148 -43.5q-194 0 -194 264q0 255 210 255q34 0 73 -3.5t62 -7.5zM259 251q-26 0 -60 -7.5t-55 -15.5l-21 -8q3 -167 128 -167q126 0 126 104q0 50 -28.5 72
t-89.5 22z" />
    <glyph glyph-name="seven.pnum" horiz-adv-x="411" 
d="M35 437v64h343v-85l-213 -425l-62 18l207 408v20h-275z" />
    <glyph glyph-name="eight.pnum" horiz-adv-x="508" 
d="M253 509q193 0 193 -132q0 -82 -89 -115q48 -19 73 -46t25 -82q0 -144 -202 -144q-200 0 -200 140q0 55 23.5 82.5t70.5 49.5q-84 34 -84 116q0 131 190 131zM253 52q65 0 98 19t33 68q0 43 -22 61t-70 30h-83q-43 -11 -64 -32.5t-21 -62.5q0 -46 33.5 -64.5t95.5 -18.5z
M253 447q-60 0 -89.5 -17.5t-29.5 -56.5q0 -36 17.5 -54.5t57.5 -30.5h83q42 10 62.5 29t20.5 55q0 75 -122 75z" />
    <glyph glyph-name="nine.pnum" horiz-adv-x="486" 
d="M66 9l6 60q81 -14 151 -14q137 0 137 167q-69 -34 -136 -34q-88 0 -133 40t-45 115q0 79 51 123t138 44q198 0 198 -259q0 -260 -210 -260q-35 0 -74 4.5t-61 8.5zM229 251q28 0 60.5 8.5t50.5 16.5l19 8q-2 82 -32.5 122.5t-93.5 40.5q-116 0 -116 -103q0 -93 112 -93z
" />
    <glyph glyph-name="questiondown.cap" horiz-adv-x="438" 
d="M36 151q0 65 17.5 98.5t75.5 82.5q49 40 69 66.5t20 58.5v35h63q13 -27 13 -61t-23 -63.5t-70 -69.5q-55 -48 -72 -74t-17 -67q0 -52 32 -75t101 -23q25 0 63.5 5.5t65.5 11.5l26 6l5 -61q-101 -30 -167 -30q-103 0 -152.5 37.5t-49.5 122.5zM292 692v-112h-82v112h82z
" />
    <glyph glyph-name="endash.cap" horiz-adv-x="633" 
d="M67 331h500v-66h-500v66z" />
    <glyph glyph-name="emdash.cap" horiz-adv-x="1133" 
d="M67 331h1000v-66h-1000v66z" />
    <glyph glyph-name="periodcentered.cap" horiz-adv-x="216" 
d="M67 278v114h82v-114h-82z" />
    <glyph glyph-name="exclamdown.cap" horiz-adv-x="247" 
d="M164 692v-112h-82v112h82zM158 464l5 -464h-79l5 464h69z" />
    <glyph glyph-name="parenleft.cap" horiz-adv-x="264" 
d="M155 780h72q-11 -29 -26.5 -76.5t-42 -167t-26.5 -205.5q0 -85 24 -191.5t48 -170.5l23 -64h-72q-4 9 -11 24t-25 63t-32 96t-25 115.5t-11 127.5q0 96 26 208.5t52 176.5z" />
    <glyph glyph-name="parenright.cap" horiz-adv-x="264" 
d="M109 -90h-72q11 29 26.5 76.5t42 167t26.5 205.5q0 85 -23.5 191.5t-47.5 170.5l-24 64h72q4 -9 11 -24t25 -63t32 -96t25 -115.5t11 -127.5q0 -96 -26 -208.5t-52 -176.5z" />
    <glyph glyph-name="bracketleft.cap" horiz-adv-x="329" 
d="M289 779v-67h-134v-738h134v-67h-210v872h210z" />
    <glyph glyph-name="bracketright.cap" horiz-adv-x="329" 
d="M40 712v67h210v-872h-210v67h134v738h-134z" />
    <glyph glyph-name="braceleft.cap" horiz-adv-x="352" 
d="M205 200q0 -15 -3.5 -55.5t-3.5 -60.5q0 -56 24.5 -84.5t90.5 -32.5l-2 -65q-101 4 -143.5 44.5t-42.5 130.5q0 21 3.5 66t3.5 56q0 43 -25 69.5t-82 42.5v61q57 13 82 39.5t25 69.5q0 13 -3.5 60.5t-3.5 67.5q0 92 42.5 132t144.5 44l1 -65q-66 -4 -90.5 -31.5
t-24.5 -83.5q0 -17 3.5 -63t3.5 -60q0 -64 -21.5 -93t-83.5 -47q61 -18 83 -48.5t22 -93.5z" />
    <glyph glyph-name="braceright.cap" horiz-adv-x="352" 
d="M147 485q0 15 3.5 55.5t3.5 60.5q0 56 -24.5 84.5t-90.5 32.5l2 65q101 -4 143.5 -44.5t42.5 -130.5q0 -21 -3.5 -66t-3.5 -56q0 -43 25 -69.5t82 -42.5v-61q-57 -13 -82 -39.5t-25 -69.5q0 -13 3.5 -60.5t3.5 -67.5q0 -92 -42.5 -132t-144.5 -44l-1 65q66 4 90.5 31.5
t24.5 83.5q0 17 -3.5 63t-3.5 60q0 64 21.5 93t83.5 47q-61 18 -83 48.5t-22 93.5z" />
    <glyph glyph-name="grave.cap" horiz-adv-x="236" 
d="M36 931l216 -100l-23 -53l-219 87z" />
    <glyph glyph-name="acute.cap" horiz-adv-x="236" 
d="M12 831l216 100l26 -66l-219 -87z" />
    <glyph glyph-name="circumflex.cap" horiz-adv-x="462" 
d="M54 791l134 135h65l134 -135h-84l-82 80l-83 -80h-84z" />
    <glyph glyph-name="caron.cap" horiz-adv-x="236" 
d="M99 791l-134 135h84l83 -80l82 80h84l-134 -135h-65z" />
    <glyph glyph-name="tilde.cap" horiz-adv-x="236" 
d="M290 915l18 -56q-5 -6 -13.5 -15.5t-30.5 -25t-40 -15.5q-25 0 -87 27t-76 27q-11 0 -29 -12t-31 -24l-13 -12l-17 56q5 6 14.5 16t33 26t41.5 16q28 0 89 -27t73 -27q9 0 26 11.5t30 23.5z" />
    <glyph glyph-name="dieresis.cap" horiz-adv-x="236" 
d="M-22 808v90h73v-90h-73zM182 808v90h72v-90h-72z" />
    <glyph glyph-name="macron.cap" horiz-adv-x="236" 
d="M-22 812v58h311v-58h-311z" />
    <glyph glyph-name="breve.cap" horiz-adv-x="236" 
d="M-21 918h69q1 -33 26.5 -54t61.5 -21q37 0 62 21t26 54h70q-3 -59 -46 -95t-112 -36t-111.5 36t-45.5 95z" />
    <glyph glyph-name="ring.cap" horiz-adv-x="236" 
d="M250 782q0 -50 -33 -78t-85 -28q-53 0 -86 28t-33 78q0 49 33.5 77t85.5 28t85 -28t33 -77zM70 782q0 -25 16.5 -39.5t45.5 -14.5t45.5 14.5t16.5 39.5t-16.5 39t-45.5 14q-62 0 -62 -53z" />
    <glyph glyph-name="hungarumlaut.cap" horiz-adv-x="236" 
d="M157 785l142 131l55 -35l-146 -129zM-40 785l142 132l54 -35l-145 -129z" />
    <glyph glyph-name="dotaccent.cap" horiz-adv-x="236" 
d="M81 801v87h74v-87h-74z" />
    <glyph glyph-name="zero.numr" horiz-adv-x="280" 
d="M139 700q60 0 89.5 -38t29.5 -128q0 -91 -29.5 -128.5t-88.5 -37.5t-89 38t-30 128t30 128t88 38zM139 642q-27 0 -40 -24.5t-13 -83.5q0 -61 13.5 -84.5t40.5 -23.5t40 23.5t13 84.5q0 59 -12.5 83.5t-41.5 24.5z" />
    <glyph glyph-name="one.numr" horiz-adv-x="280" 
d="M41 620l101 70h60v-312h-64v242l-68 -47z" />
    <glyph glyph-name="two.numr" horiz-adv-x="280" 
d="M243 378h-209v55l88 87q51 49 51 83q0 37 -49 37l-85 -9l-2 57q59 12 103 12q51 0 75 -22t24 -69q0 -33 -14 -57.5t-47 -54.5l-63 -61h128v-58z" />
    <glyph glyph-name="three.numr" horiz-adv-x="280" 
d="M37 690q59 10 102 10q105 0 105 -84q0 -51 -39 -73q24 -8 35.5 -24.5t11.5 -53.5q0 -97 -106 -97q-22 0 -50 2.5t-46 5.5l-17 2l4 56q57 -8 100 -8q50 0 50 42q0 43 -47 43h-65v53h65q14 0 26 13t12 31q0 34 -45 34l-92 -7z" />
    <glyph glyph-name="four.numr" horiz-adv-x="280" 
d="M165 378v48h-141v54l69 210h70l-73 -206h75l5 89h58v-89h27v-58h-27v-48h-63z" />
    <glyph glyph-name="five.numr" horiz-adv-x="280" 
d="M53 690h187v-56h-136l-5 -73q30 15 58 15q93 0 93 -98q0 -108 -106 -108q-21 0 -47.5 3t-42.5 7l-17 3l5 52q55 -9 96 -9q47 0 47 50q0 45 -40 45q-12 0 -25 -3.5t-20 -7.5l-7 -4l-50 6z" />
    <glyph glyph-name="six.numr" horiz-adv-x="280" 
d="M241 690l-4 -54q-50 7 -84 7q-60 0 -61 -74l9 3q9 3 24.5 7t26.5 4q102 0 102 -103q0 -52 -29.5 -82t-80.5 -30q-116 0 -116 161q0 89 29.5 130t93.5 41q16 0 38.5 -2.5t36.5 -5.5zM144 529q-12 0 -25 -4t-20 -8t-7 -5q3 -87 50 -87q48 0 48 54q0 27 -11 38.5t-35 11.5z
" />
    <glyph glyph-name="seven.numr" horiz-adv-x="280" 
d="M40 628v62h206v-77l-105 -244l-69 13l102 225v21h-134z" />
    <glyph glyph-name="eight.numr" horiz-adv-x="280" 
d="M140 700q113 0 113 -85q0 -60 -43 -73q48 -14 48 -75q0 -99 -118 -99t-118 95q0 59 48 80q-43 16 -43 72q0 85 113 85zM140 422q53 0 53 45q0 37 -39 49h-28q-39 -12 -39 -51q0 -43 53 -43zM140 646q-50 0 -50 -37q0 -31 36 -44h28q36 12 36 43q0 38 -50 38z" />
    <glyph glyph-name="nine.numr" horiz-adv-x="280" 
d="M40 380l4 53q45 -7 82 -7q62 0 64 72l-9 -2q-9 -3 -24.5 -6.5t-27.5 -3.5q-49 0 -75 27t-26 77q0 52 30 81t80 29q118 0 118 -167q0 -85 -29.5 -125t-94.5 -40q-18 0 -41 3t-37 6zM138 538q10 0 23.5 3.5t22.5 6.5l8 4q-1 91 -52 91q-48 0 -48 -52q0 -23 12.5 -38
t33.5 -15z" />
    <glyph glyph-name="zero.slash" 
d="M253 280v96h62v-96h-62zM279 671q82 0 133 -30.5t79.5 -109t28.5 -211.5q0 -181 -60 -255.5t-180 -74.5t-180.5 73.5t-60.5 255.5q0 195 59.5 273.5t180.5 78.5zM280 602q-57 0 -90.5 -23.5t-52 -86t-18.5 -173.5q0 -148 39 -204.5t122 -56.5t122 57t39 205
q0 161 -37.5 221.5t-123.5 60.5z" />
    <glyph glyph-name="at.cap" horiz-adv-x="972" 
d="M931 360v-13q0 -76 -8.5 -130t-22 -86t-37 -51t-48 -25t-59.5 -6q-28 0 -50.5 6t-34.5 15t-20 18t-11 15l-2 6q-98 -59 -174 -59q-37 0 -64.5 9t-55 33.5t-42 77.5t-14.5 131q0 132 45 195.5t158 63.5q22 0 50.5 -6.5t46.5 -13.5l18 -6v16h75v-191q0 -62 0.5 -96.5
t3.5 -66.5t7.5 -45t14 -24t20.5 -13t31 -2q34 0 52.5 13t31.5 66t13 156v14q0 185 -82 268t-271 83q-192 0 -284.5 -94.5t-92.5 -301.5q0 -218 88 -308t289 -90l143 10l3 -67q-94 -9 -146 -9q-116 0 -196.5 22t-140 74.5t-88 143t-28.5 224.5q0 241 115 351.5t338 110.5
t326 -102.5t103 -315.5zM469 116q43 0 146 46q-9 54 -9 173v139q-60 20 -103 20q-81 0 -110 -46t-29 -149q0 -183 105 -183z" />
    <glyph glyph-name="zero.dnom" horiz-adv-x="280" 
d="M139 322q60 0 89.5 -38t29.5 -128q0 -91 -29.5 -128.5t-88.5 -37.5t-89 38t-30 128t30 128t88 38zM139 264q-27 0 -40 -24.5t-13 -83.5q0 -61 13.5 -84.5t40.5 -23.5t40 23.5t13 84.5q0 59 -12.5 83.5t-41.5 24.5z" />
    <glyph glyph-name="one.dnom" horiz-adv-x="280" 
d="M43 242l101 70h60v-312h-64v242l-68 -47z" />
    <glyph glyph-name="two.dnom" horiz-adv-x="280" 
d="M247 0h-209v55l88 87q51 49 51 83q0 37 -49 37l-85 -9l-2 57q59 12 103 12q51 0 75 -22t24 -69q0 -33 -14 -57.5t-47 -54.5l-63 -61h128v-58z" />
    <glyph glyph-name="three.dnom" horiz-adv-x="280" 
d="M37 312q59 10 102 10q105 0 105 -84q0 -51 -39 -73q24 -8 35.5 -24.5t11.5 -53.5q0 -97 -106 -97q-22 0 -50 2.5t-46 5.5l-17 2l4 56q57 -8 100 -8q50 0 50 42q0 43 -47 43h-65v53h65q14 0 26 13t12 31q0 34 -45 34l-92 -7z" />
    <glyph glyph-name="four.dnom" horiz-adv-x="280" 
d="M166 0v48h-141v54l69 210h70l-73 -206h75l5 89h58v-89h27v-58h-27v-48h-63z" />
    <glyph glyph-name="five.dnom" horiz-adv-x="280" 
d="M49 312h187v-56h-136l-5 -73q30 15 58 15q93 0 93 -98q0 -108 -106 -108q-21 0 -47.5 3t-42.5 7l-17 3l5 52q55 -9 96 -9q47 0 47 50q0 45 -40 45q-12 0 -25 -3.5t-20 -7.5l-7 -4l-50 6z" />
    <glyph glyph-name="six.dnom" horiz-adv-x="280" 
d="M237 312l-4 -54q-50 7 -84 7q-60 0 -61 -74l9 3q9 3 24.5 7t26.5 4q102 0 102 -103q0 -52 -29.5 -82t-80.5 -30q-116 0 -116 161q0 89 29.5 130t93.5 41q16 0 38.5 -2.5t36.5 -5.5zM140 151q-12 0 -25 -4t-20 -8t-7 -5q3 -87 50 -87q48 0 48 54q0 27 -11 38.5t-35 11.5z
" />
    <glyph glyph-name="seven.dnom" horiz-adv-x="280" 
d="M40 250v62h206v-77l-105 -244l-69 13l102 225v21h-134z" />
    <glyph glyph-name="eight.dnom" horiz-adv-x="280" 
d="M140 322q113 0 113 -85q0 -60 -43 -73q48 -14 48 -75q0 -99 -118 -99t-118 95q0 59 48 80q-43 16 -43 72q0 85 113 85zM140 44q53 0 53 45q0 37 -39 49h-28q-39 -12 -39 -51q0 -43 53 -43zM140 268q-50 0 -50 -37q0 -31 36 -44h28q36 12 36 43q0 38 -50 38z" />
    <glyph glyph-name="nine.dnom" horiz-adv-x="280" 
d="M37 2l4 53q45 -7 82 -7q62 0 64 72l-9 -2q-9 -3 -24.5 -6.5t-27.5 -3.5q-49 0 -75 27t-26 77q0 52 30 81t80 29q118 0 118 -167q0 -85 -29.5 -125t-94.5 -40q-18 0 -41 3t-37 6zM135 160q10 0 23.5 3.5t21.5 6.5l9 4q-1 91 -52 91q-48 0 -48 -52q0 -23 12.5 -38t33.5 -15
z" />
    <glyph glyph-name="hyphen.cap" horiz-adv-x="438" 
d="M68 270v70h303v-70h-303z" />
    </font>
</defs>
</svg>
